<?xml version="1.0" encoding="UTF-8"?>
<svg id="Layer_2" xmlns="http://www.w3.org/2000/svg" width="713.9" height="650.63" viewBox="0 0 713.9 650.63">
  <g id="Layer_1-2" data-name="Layer_1">
    <g>
      <polygon points="514.73 0 458.53 97.34 255.05 97.34 198.85 0 514.73 0" style="fill: #fff;"/>
      <polygon points="198.85 650.63 255.05 553.29 458.53 553.29 514.73 650.63 198.85 650.63" style="fill: #fff;"/>
      <polygon points="112.4 348.81 0 348.81 157.94 622.37 214.14 525.03 112.4 348.81" style="fill: #fff;"/>
      <polygon points="601.5 348.81 713.9 348.81 555.96 622.37 499.76 525.03 601.5 348.81" style="fill: #fff;"/>
      <polygon points="157.94 28.26 214.14 125.6 112.4 301.82 0 301.82 157.94 28.26" style="fill: #fff;"/>
      <polygon points="555.96 28.26 499.76 125.6 601.5 301.82 713.9 301.82 555.96 28.26" style="fill: #fff;"/>
    </g>
  </g>
</svg>