<?xml version="1.0" encoding="UTF-8"?>
<svg id="Layer_2" xmlns="http://www.w3.org/2000/svg" width="1782.04" height="2088.54" viewBox="0 0 1782.04 2088.54">
  <g id="Layer_1-2" data-name="Layer_1">
    <g>
      <polygon points="0 544.29 310 723.27 310 1371.28 0 1550.25 0 544.29" style="fill: #f6ac09;"/>
      <polygon points="1782.04 1550.25 1472.04 1371.28 1472.04 723.27 1782.04 544.29 1782.04 1550.25"/>
      <polygon points="910.85 1730.59 910.85 2088.54 1782.04 1585.56 1472.04 1406.58 910.85 1730.59"/>
      <polygon points="910.85 357.96 910.85 0 1782.04 502.98 1472.04 681.96 910.85 357.96"/>
      <polygon points="0 1585.56 310 1406.58 871.19 1730.59 871.19 2088.54 0 1585.56" style="fill: #f6ac09;"/>
      <polygon points="0 502.98 310 681.96 871.19 357.96 871.19 0 0 502.98" style="fill: #f6ac09;"/>
    </g>
  </g>
</svg>