<?xml version="1.0" encoding="UTF-8"?>
<svg id="Layer_2" xmlns="http://www.w3.org/2000/svg" width="469.33" height="118.09" viewBox="0 0 469.33 118.09">
  <g id="Layer_1-2" data-name="Layer_1">
    <g>
      <g>
        <polygon points="93.42 0 83.22 17.67 46.29 17.67 36.09 0 93.42 0" style="fill: #f6ac09;"/>
        <polygon points="36.09 118.09 46.29 100.42 83.22 100.42 93.42 118.09 36.09 118.09"/>
        <polygon points="20.4 63.31 0 63.31 28.67 112.96 38.87 95.29 20.4 63.31"/>
        <polygon points="109.17 63.31 129.57 63.31 100.91 112.96 90.71 95.29 109.17 63.31"/>
        <polygon points="28.67 5.13 38.87 22.8 20.4 54.78 0 54.78 28.67 5.13" style="fill: #f6ac09;"/>
        <polygon points="100.91 5.13 90.71 22.8 109.17 54.78 129.57 54.78 100.91 5.13" style="fill: #f6ac09;"/>
      </g>
      <g>
        <path d="M246.89,109.57h-7.12v-49.7h-59.03v49.7h-7.05V8.52h7.05v44.86h59.03V8.52h7.12v101.05Z" style="fill: #1d1d1f;"/>
        <path d="M282.58,109.57V8.52h7.05v101.05h-7.05Z" style="fill: #1d1d1f;"/>
        <path d="M385.05,8.52h7.67l-37.81,101.05h-6.22l-37.67-101.05h7.53l25.43,68.77c3.87,10.37,6.47,18.16,7.81,23.36.92-3.46,2.74-8.82,5.46-16.1l27.79-76.03Z" style="fill: #1d1d1f;"/>
        <path d="M469.33,109.57h-55.22V8.52h55.22v6.5h-48.17v38.22h45.48v6.5h-45.48v43.34h48.17v6.5Z" style="fill: #1d1d1f;"/>
      </g>
    </g>
  </g>
</svg>