<?xml version="1.0" encoding="UTF-8"?>
<svg id="Layer_2" xmlns="http://www.w3.org/2000/svg" width="2153.54" height="1812.04" viewBox="0 0 2153.54 1812.04">
  <g id="Layer_1-2" data-name="Layer_1">
    <g>
      <polygon points="1579.25 0 1400.28 310 752.27 310 573.29 0 1579.25 0" style="fill: #f6ac09;"/>
      <polygon points="573.29 1812.04 752.27 1502.04 1400.28 1502.04 1579.25 1812.04 573.29 1812.04"/>
      <polygon points="357.96 940.85 0 940.85 502.98 1812.04 681.96 1502.04 357.96 940.85"/>
      <polygon points="1795.59 940.85 2153.54 940.85 1650.56 1812.04 1471.58 1502.04 1795.59 940.85"/>
      <polygon points="502.98 0 681.96 310 357.96 871.19 0 871.19 502.98 0" style="fill: #f6ac09;"/>
      <polygon points="1650.56 0 1471.58 310 1795.59 871.19 2153.54 871.19 1650.56 0" style="fill: #f6ac09;"/>
    </g>
  </g>
</svg>