<?xml version="1.0" encoding="UTF-8"?>
<svg id="Layer_2" xmlns="http://www.w3.org/2000/svg" width="2273.54" height="2032.04" viewBox="0 0 2273.54 2032.04">
  <g id="Layer_1-2" data-name="Layer_1">
    <g>
      <polygon points="1639.25 0 1460.28 310 812.27 310 633.29 0 1639.25 0" style="fill: #f6ac09;"/>
      <polygon points="633.29 2032.04 812.27 1722.04 1460.28 1722.04 1639.25 2032.04 633.29 2032.04"/>
      <polygon points="357.96 1070.85 0 1070.85 502.98 1942.04 681.96 1632.04 357.96 1070.85"/>
      <polygon points="1915.59 1070.85 2273.54 1070.85 1770.56 1942.04 1591.58 1632.04 1915.59 1070.85"/>
      <polygon points="502.98 90 681.96 400 357.96 961.19 0 961.19 502.98 90" style="fill: #f6ac09;"/>
      <polygon points="1770.56 90 1591.58 400 1915.59 961.19 2273.54 961.19 1770.56 90" style="fill: #f6ac09;"/>
    </g>
  </g>
</svg>