<?xml version="1.0" encoding="utf-8" standalone="yes"?>
<!DOCTYPE svg PUBLIC "-//W3C//DTD SVG 1.1//EN" "http://www.w3.org/Graphics/SVG/1.1/DTD/svg11.dtd">
<svg width="74" height="74" viewBox="0 0 74 74" style="fill:none;stroke:none;fill-rule:evenodd;clip-rule:evenodd;stroke-linecap:round;stroke-linejoin:round;stroke-miterlimit:1.5;" version="1.1" xmlns="http://www.w3.org/2000/svg" xmlns:xlink="http://www.w3.org/1999/xlink"><g id="blend" style="mix-blend-mode:multiply"><g id="g-root-writ_1uqisjjg4tudd-fill" data-item-order="0" data-item-id="writ_1uqisjjg4tudd" data-item-class="Icon Stroke SceneTarget Indexed" data-item-index="3" data-renderer-id="0" transform="translate(3, 3)"></g><g id="g-root-writ_1uqisjjg4tudd-stroke" data-item-order="0" data-item-id="writ_1uqisjjg4tudd" data-item-class="Icon Stroke SceneTarget Indexed" data-item-index="3" data-renderer-id="0" transform="translate(3, 3)"><g id="writ_1uqisjjg4tudd-stroke" fill="none" stroke-linecap="round" stroke-linejoin="round" stroke-miterlimit="4" stroke="#e15e5a" stroke-width="2"><g><path d="M 48.958 26L 48.958 15C 48.958 12.791 47.167 11 44.958 11L 20.958 11C 18.749 11 16.958 12.791 16.958 15L 16.958 47C 16.958 49.209 18.749 51 20.958 51L 36.958 51L 42.958 57L 42.958 51L 44.958 51C 46.372 51 47.68 50.253 48.4 49.036M 12.97 17.528C 11.725 18.241 10.958 19.566 10.958 21L 10.958 53C 10.958 55.209 12.749 57 14.958 57L 30.958 57C 32.359 57 33.658 56.266 34.382 55.066M 20.958 17L 28.958 17M 24.958 26L 24.958 17M 41.4 24.442L 33 22.042L 35.4 30.442L 49.758 44.8C 51.415 46.457 54.101 46.457 55.758 44.8C 57.415 43.143 57.415 40.457 55.758 38.8ZM 47.958 43L 53.958 37M 35.4 30.442L 41.4 24.442M 34.958 17L 42.958 17M 22.958 33L 30.958 33M 22.958 39L 35.958 39M 22.958 45L 40.958 45"></path></g></g></g></g></svg>