<?xml version="1.0" encoding="utf-8" standalone="yes"?>
<!DOCTYPE svg PUBLIC "-//W3C//DTD SVG 1.1//EN" "http://www.w3.org/Graphics/SVG/1.1/DTD/svg11.dtd">
<svg width="74" height="74" viewBox="0 0 74 74" style="fill:none;stroke:none;fill-rule:evenodd;clip-rule:evenodd;stroke-linecap:round;stroke-linejoin:round;stroke-miterlimit:1.5;" version="1.1" xmlns="http://www.w3.org/2000/svg" xmlns:xlink="http://www.w3.org/1999/xlink"><g id="blend" style="mix-blend-mode:multiply"><g id="g-root-fiel_1hf2a67g4tvyb-fill" data-item-order="0" data-item-id="fiel_1hf2a67g4tvyb" data-item-class="Icon Stroke SceneTarget Indexed Indexed_1" data-item-index="1" data-renderer-id="0" transform="translate(3, 3)"></g><g id="g-root-fiel_1hf2a67g4tvyb-stroke" data-item-order="0" data-item-id="fiel_1hf2a67g4tvyb" data-item-class="Icon Stroke SceneTarget Indexed Indexed_1" data-item-index="1" data-renderer-id="0" transform="translate(3, 3)"><g id="fiel_1hf2a67g4tvyb-stroke" fill="none" stroke-linecap="round" stroke-linejoin="round" stroke-miterlimit="4" stroke="#e3cd09" stroke-width="2"><g><path d="M 22.498 53.922C 12.426 48.129 8.256 35.734 12.779 25.031C 17.302 14.328 29.098 8.68 40.272 11.866M 45.502 14.078C 55.548 19.845 59.738 32.182 55.282 42.874C 50.825 53.565 39.114 59.275 27.946 56.2M 15.36 55.832L 22.5 53.918L 20.586 46.778M 52.64 12.168L 45.5 14.082L 47.414 21.222M 27.58 26.682C 27.579 30.436 30.622 33.48 34.376 33.48C 38.13 33.48 41.173 30.436 41.172 26.682C 41.173 22.928 38.13 19.884 34.376 19.884C 30.622 19.884 27.579 22.928 27.58 26.682M 44.948 43.932C 43.346 39.539 39.169 36.615 34.493 36.615C 29.817 36.615 25.64 39.539 24.038 43.932M 29.6 21.844C 31.918 26.152 37.066 26.682 41.166 26.682"></path></g></g></g></g></svg>