<?xml version="1.0" encoding="utf-8" standalone="yes"?>
<!DOCTYPE svg PUBLIC "-//W3C//DTD SVG 1.1//EN" "http://www.w3.org/Graphics/SVG/1.1/DTD/svg11.dtd">
<svg width="74" height="74" viewBox="0 0 74 74" style="fill:none;stroke:none;fill-rule:evenodd;clip-rule:evenodd;stroke-linecap:round;stroke-linejoin:round;stroke-miterlimit:1.5;" version="1.1" xmlns="http://www.w3.org/2000/svg" xmlns:xlink="http://www.w3.org/1999/xlink"><g id="blend" style="mix-blend-mode:multiply"><g id="g-root-sett_1luvsang4tv62-fill" data-item-order="0" data-item-id="sett_1luvsang4tv62" data-item-class="Icon Stroke SceneTarget Indexed" data-item-index="2" data-renderer-id="0" transform="translate(3, 3)"></g><g id="g-root-sett_1luvsang4tv62-stroke" data-item-order="0" data-item-id="sett_1luvsang4tv62" data-item-class="Icon Stroke SceneTarget Indexed" data-item-index="2" data-renderer-id="0" transform="translate(3, 3)"><g id="sett_1luvsang4tv62-stroke" fill="none" stroke-linecap="round" stroke-linejoin="round" stroke-miterlimit="4" stroke="#dd8433" stroke-width="2"><g><path d="M 53 19C 53 21.209 51.209 23 49 23L 15 23C 12.791 23 11 21.209 11 19L 11 15C 11 12.791 12.791 11 15 11L 49 11C 51.209 11 53 12.791 53 15ZM 15 35C 12.791 35 11 33.209 11 31L 11 27C 11 24.791 12.791 23 15 23L 49 23C 51.209 23 53 24.791 53 27L 53 30M 19.5 16.5C 19.224 16.5 19 16.724 19 17C 19 17.276 19.224 17.5 19.5 17.5C 19.776 17.5 20 17.276 20 17C 20 16.724 19.776 16.5 19.5 16.5L 19.5 16.5M 26.5 16.5C 26.224 16.5 26 16.724 26 17C 26 17.276 26.224 17.5 26.5 17.5C 26.776 17.5 27 17.276 27 17C 27 16.724 26.776 16.5 26.5 16.5L 26.5 16.5M 19.5 28.5C 19.224 28.5 19 28.724 19 29C 19 29.276 19.224 29.5 19.5 29.5C 19.776 29.5 20 29.276 20 29C 20 28.724 19.776 28.5 19.5 28.5L 19.5 28.5M 26.5 28.5C 26.224 28.5 26 28.724 26 29C 26 29.276 26.224 29.5 26.5 29.5C 26.776 29.5 27 29.276 27 29C 27 28.724 26.776 28.5 26.5 28.5L 26.5 28.5M 28 47L 15 47C 12.791 47 11 45.209 11 43L 11 39C 11 36.791 12.791 35 15 35L 31 35M 19.5 40.5C 19.224 40.5 19 40.724 19 41C 19 41.276 19.224 41.5 19.5 41.5C 19.776 41.5 20 41.276 20 41C 20 40.724 19.776 40.5 19.5 40.5L 19.5 40.5M 26.5 40.5C 26.224 40.5 26 40.724 26 41C 26 41.276 26.224 41.5 26.5 41.5C 26.776 41.5 27 41.276 27 41C 27 40.724 26.776 40.5 26.5 40.5L 26.5 40.5M 42.624 44.062C 42.624 45.65 43.912 46.938 45.5 46.938C 47.088 46.938 48.376 45.65 48.376 44.062C 48.376 42.474 47.088 41.186 45.5 41.186C 43.912 41.186 42.624 42.474 42.624 44.062ZM 47.942 32.94L 48.79 35.724C 49.078 36.684 50.063 37.256 51.04 37.03L 53.862 36.376C 54.96 36.129 56.091 36.625 56.651 37.601C 57.212 38.577 57.071 39.804 56.304 40.628L 54.328 42.756C 53.652 43.491 53.652 44.621 54.328 45.356L 56.302 47.486C 57.069 48.31 57.21 49.537 56.649 50.513C 56.089 51.489 54.958 51.985 53.86 51.738L 51.038 51.084C 50.062 50.866 49.084 51.441 48.8 52.4L 47.952 55.184C 47.628 56.262 46.636 57 45.51 57C 44.384 57 43.392 56.262 43.068 55.184L 42.21 52.4C 41.922 51.44 40.937 50.868 39.96 51.094L 37.138 51.748C 36.04 51.995 34.909 51.499 34.349 50.523C 33.788 49.547 33.929 48.32 34.696 47.496L 36.67 45.366C 37.346 44.631 37.346 43.501 36.67 42.766L 34.696 40.636C 33.929 39.812 33.788 38.585 34.349 37.609C 34.909 36.633 36.04 36.137 37.138 36.384L 39.96 37.038C 40.937 37.263 41.921 36.692 42.21 35.732L 43.058 32.948C 43.38 31.87 44.372 31.13 45.497 31.128C 46.623 31.126 47.616 31.863 47.942 32.94Z"></path></g></g></g></g></svg>