<?xml version="1.0" encoding="UTF-8"?>
<svg xmlns="http://www.w3.org/2000/svg" width="354.24" height="142.02" viewBox="0 0 354.24 142.02">
  <g style="isolation: isolate;">
    <g id="Layer_2">
      <g id="Layer_1-2" data-name="Layer_1">
        <g>
          <rect x=".5" y=".5" width="353.24" height="141.02" style="fill: #fff; stroke: #f8f8f8; stroke-miterlimit: 10;"/>
          <g>
            <g id="blend" style="mix-blend-mode: multiply;">
              <g id="g-root-fiel_1hf2a67g4tvyb-stroke">
                <g id="fiel_1hf2a67g4tvyb-stroke">
                  <path d="M76.44,92.59c-1.34,0-2.7-.18-4.05-.55-.34-.09-.54-.45-.45-.79.09-.34.45-.54.79-.45,6.8,1.87,13.98-1.63,16.7-8.14,2.5-6.01.51-12.91-4.61-16.7l.79,2.95c.09.34-.11.69-.45.78-.34.09-.69-.11-.78-.45l-1.22-4.56c-.04-.16-.02-.31.04-.45,0-.01.01-.02.02-.04.1-.17.26-.28.44-.31l4.51-1.21c.34-.09.69.11.78.45.09.34-.11.69-.45.78l-3.16.85c5.77,4.1,8.04,11.75,5.27,18.39-2.42,5.82-8.11,9.43-14.17,9.43ZM64.52,91.83c-.28,0-.54-.19-.62-.47-.09-.34.11-.69.45-.78l3.16-.85c-5.79-4.12-8.05-11.79-5.23-18.46,3.01-7.12,10.89-10.89,18.32-8.77.34.1.54.45.44.79-.1.34-.45.54-.79.44-6.82-1.94-14.04,1.51-16.79,8.04-2.54,6.02-.57,12.94,4.57,16.75l-.79-2.95c-.09-.34.11-.69.45-.78.34-.09.69.11.78.45l1.22,4.56c.04.15.02.31-.04.45,0,.01-.01.03-.02.04-.1.17-.26.28-.44.31l-4.51,1.21c-.06.01-.11.02-.17.02ZM83.42,84.23c-.26,0-.51-.16-.6-.42-.93-2.54-3.37-4.25-6.08-4.25s-5.15,1.71-6.08,4.25c-.12.33-.49.5-.82.38-.33-.12-.5-.49-.38-.82,1.11-3.05,4.04-5.09,7.28-5.09s6.17,2.05,7.28,5.09c.12.33-.05.7-.38.82-.07.03-.15.04-.22.04ZM76.66,77.55c-1.33,0-2.58-.52-3.52-1.46s-1.46-2.19-1.46-3.52h0c0-1.33.52-2.58,1.46-3.52.01-.02.03-.03.05-.05.94-.91,2.17-1.41,3.48-1.41s2.58.52,3.52,1.46,1.46,2.19,1.46,3.52c0,1.33-.52,2.58-1.46,3.52s-2.19,1.46-3.52,1.46ZM73.55,70.56c-.38.59-.59,1.28-.59,2.01h0c0,.99.38,1.92,1.08,2.62s1.63,1.08,2.62,1.08,1.92-.39,2.62-1.08c.55-.55.9-1.24,1.03-1.99-2.42-.06-5.14-.52-6.76-2.64ZM74.44,69.61c1.28,1.85,3.7,2.25,5.87,2.31-.13-.74-.48-1.43-1.03-1.97-.7-.7-1.63-1.08-2.62-1.08-.81,0-1.59.26-2.22.74Z" style="fill: #5d5dce;"/>
                </g>
              </g>
            </g>
            <g id="blend-2" data-name="blend" style="mix-blend-mode: multiply;">
              <g id="g-root-layo_1uqisjjg4tudc-stroke">
                <g id="layo_1uqisjjg4tudc-stroke">
                  <path d="M284.68,91.39h-24.27c-1.1,0-3.19-.67-3.19-3.19v-20.44c0-1.1.67-3.19,3.19-3.19h24.27c1.1,0,3.19.67,3.19,3.19v20.44c0,1.1-.67,3.19-3.19,3.19ZM258.49,72.23v15.97c0,1.8,1.6,1.91,1.92,1.92h4.47v-17.88h-6.39ZM266.16,81.17v8.94h18.52c1.8,0,1.91-1.6,1.92-1.92v-7.02h-20.44ZM266.16,79.89h20.44v-7.66h-20.44v7.66ZM265.52,70.95h21.08v-3.19c0-1.8-1.6-1.91-1.92-1.92h-24.27c-1.8,0-1.91,1.6-1.92,1.92v3.19h7.03ZM269.99,69.35c-.53,0-.96-.43-.96-.96s.43-.96.96-.96.96.43.96.96-.43.96-.96.96ZM269.99,68.08c-.18,0-.32.14-.32.32s.14.32.32.32.32-.14.32-.32-.14-.32-.32-.32ZM266.16,69.35c-.53,0-.96-.43-.96-.96s.43-.96.96-.96.96.43.96.96-.43.96-.96.96ZM266.16,68.08c-.18,0-.32.14-.32.32s.14.32.32.32.32-.14.32-.32-.14-.32-.32-.32ZM262.33,69.35c-.53,0-.96-.43-.96-.96s.43-.96.96-.96.96.43.96.96-.43.96-.96.96ZM262.33,68.08c-.18,0-.32.14-.32.32s.14.32.32.32.32-.14.32-.32-.14-.32-.32-.32Z" style="fill: #5d5dce;"/>
                </g>
              </g>
            </g>
            <g id="blend-3" data-name="blend" style="mix-blend-mode: multiply;">
              <g id="g-root-writ_1uqisjjg4tudd-stroke">
                <g id="writ_1uqisjjg4tudd-stroke">
                  <path d="M216.6,91.97c-.17,0-.33-.06-.45-.19l-3.64-3.64h-9.95c-1.76,0-3.19-1.43-3.19-3.19v-20.44c0-1.76,1.43-3.19,3.19-3.19h15.33c1.76,0,3.19,1.43,3.19,3.19v7.03c0,.35-.29.64-.64.64s-.64-.29-.64-.64v-7.03c0-1.06-.86-1.92-1.92-1.92h-15.33c-1.06,0-1.92.86-1.92,1.92v20.44c0,1.06.86,1.92,1.92,1.92h10.22c.17,0,.33.07.45.19l2.74,2.74v-2.29c0-.35.29-.64.64-.64h1.28c.67,0,1.31-.36,1.65-.94.18-.3.57-.4.87-.22.3.18.4.57.22.87-.57.97-1.63,1.57-2.75,1.57h-.64v3.19c0,.26-.16.49-.39.59-.08.03-.16.05-.24.05ZM208.94,91.97h-10.22c-1.76,0-3.19-1.43-3.19-3.19v-20.44c0-1.14.62-2.2,1.61-2.77.31-.18.7-.07.87.24.18.31.07.7-.24.87-.59.34-.96.98-.96,1.66v20.44c0,1.06.86,1.92,1.92,1.92h10.22c.67,0,1.3-.35,1.64-.93.18-.3.57-.4.88-.22.3.18.4.57.22.88-.57.95-1.62,1.54-2.73,1.54ZM222.86,84.97c-.89,0-1.74-.35-2.37-.98l-9.17-9.17s0,0,0,0c0,0,0,0,0,0,0,0,0,0,0,0-.08-.08-.13-.18-.16-.28l-1.53-5.35c-.06-.22,0-.46.16-.63.16-.16.4-.23.63-.16l5.35,1.53c.1.03.2.08.28.16,0,0,0,0,0,0,0,0,0,0,0,0,0,0,0,0,0,0l9.17,9.17c.63.63.98,1.47.98,2.37s-.35,1.74-.98,2.37c-.63.63-1.47.98-2.37.98ZM220.7,82.39l.7.7c.78.78,2.15.78,2.93,0,.39-.39.61-.91.61-1.46s-.22-1.07-.61-1.46l-.7-.7-2.93,2.93ZM212.68,74.37l7.12,7.12,2.93-2.93-7.12-7.12-2.93,2.93ZM211.17,69.94l.92,3.22,2.3-2.3-3.22-.92ZM215.33,84.31h-11.5c-.35,0-.64-.29-.64-.64s.29-.64.64-.64h11.5c.35,0,.64.29.64.64s-.29.64-.64.64ZM212.13,80.48h-8.3c-.35,0-.64-.29-.64-.64s.29-.64.64-.64h8.3c.35,0,.64.29.64.64s-.29.64-.64.64ZM208.94,76.64h-5.11c-.35,0-.64-.29-.64-.64s.29-.64.64-.64h5.11c.35,0,.64.29.64.64s-.29.64-.64.64ZM205.11,72.17c-.35,0-.64-.29-.64-.64v-5.11h-1.92c-.35,0-.64-.29-.64-.64s.29-.64.64-.64h5.11c.35,0,.64.29.64.64s-.29.64-.64.64h-1.92v5.11c0,.35-.29.64-.64.64ZM216.6,66.43h-5.11c-.35,0-.64-.29-.64-.64s.29-.64.64-.64h5.11c.35,0,.64.29.64.64s-.29.64-.64.64Z" style="fill: #5d5dce;"/>
                </g>
              </g>
            </g>
            <g id="blend-4" data-name="blend" style="mix-blend-mode: multiply;">
              <g id="g-root-sett_1luvsang4tv62-stroke">
                <g id="sett_1luvsang4tv62-stroke">
                  <path d="M150.33,94.34c-1.01,0-1.88-.65-2.17-1.61l-.55-1.77c-.09-.29-.39-.47-.68-.4l-1.8.42c-.98.22-1.98-.22-2.48-1.09-.5-.87-.38-1.95.31-2.69l1.26-1.36c.21-.23.21-.57,0-.79l-1.26-1.36c-.68-.74-.81-1.81-.31-2.69.5-.87,1.49-1.31,2.48-1.09l1.81.42c.29.07.59-.11.68-.4l.54-1.78c.28-.95,1.17-1.61,2.17-1.61h0c1.01,0,1.88.65,2.17,1.61l.54,1.78c.09.29.39.47.68.4l1.8-.42c.98-.22,1.98.22,2.48,1.09.5.87.38,1.95-.31,2.69l-1.26,1.36c-.21.22-.21.57,0,.79l1.26,1.36c.68.74.81,1.81.31,2.69-.5.87-1.49,1.31-2.48,1.09l-1.81-.42c-.29-.06-.59.11-.67.4l-.54,1.78c-.29.96-1.16,1.61-2.17,1.61ZM147.06,89.26c.8,0,1.54.52,1.78,1.32l.55,1.77c.13.43.51.71.95.71s.82-.28.95-.71l.54-1.78c.27-.93,1.23-1.49,2.18-1.28l1.81.42c.43.1.86-.1,1.08-.48.22-.38.17-.86-.14-1.18l-1.26-1.36c-.65-.71-.65-1.82,0-2.53l1.26-1.36c.3-.32.36-.8.14-1.18-.22-.38-.66-.58-1.09-.48l-1.8.42c-.95.22-1.91-.34-2.19-1.27l-.54-1.78s0,0,0,0c-.13-.42-.51-.7-.95-.7h0c-.43,0-.82.29-.95.71l-.54,1.78c-.28.93-1.24,1.49-2.19,1.27l-1.8-.42c-.43-.1-.86.1-1.08.48-.22.38-.17.86.14,1.18l1.26,1.36c.65.71.65,1.82,0,2.53l-1.26,1.36c-.3.32-.36.8-.14,1.18.22.38.66.58,1.09.48l1.8-.42c.14-.03.28-.05.42-.05ZM139.15,87.95h-8.3c-1.76,0-3.19-1.43-3.19-3.19v-2.55c0-1.04.5-1.97,1.28-2.55-.78-.58-1.28-1.51-1.28-2.55v-2.55c0-1.04.5-1.97,1.28-2.55-.78-.58-1.28-1.51-1.28-2.55v-2.55c0-1.76,1.43-3.19,3.19-3.19h21.71c1.76,0,3.19,1.43,3.19,3.19v2.55c0,1.04-.5,1.97-1.28,2.55.78.58,1.28,1.51,1.28,2.55v1.92c0,.35-.29.64-.64.64s-.64-.29-.64-.64v-1.92c0-1.06-.86-1.92-1.92-1.92h-21.71c-1.06,0-1.92.86-1.92,1.92v2.55c0,1.06.86,1.92,1.92,1.92h10.22c.35,0,.64.29.64.64s-.29.64-.64.64h-10.22c-1.06,0-1.92.86-1.92,1.92v2.55c0,1.06.86,1.92,1.92,1.92h8.3c.35,0,.64.29.64.64s-.29.64-.64.64ZM130.84,71.35h21.71c1.06,0,1.92-.86,1.92-1.92v-2.55c0-1.06-.86-1.92-1.92-1.92h-21.71c-1.06,0-1.92.86-1.92,1.92v2.55c0,1.06.86,1.92,1.92,1.92ZM150.32,87.91c-1.36,0-2.48-1.11-2.48-2.48s1.11-2.48,2.48-2.48,2.48,1.11,2.48,2.48-1.11,2.48-2.48,2.48ZM150.32,84.24c-.66,0-1.2.54-1.2,1.2s.54,1.2,1.2,1.2,1.2-.54,1.2-1.2-.54-1.2-1.2-1.2ZM138.19,84.44c-.53,0-.96-.43-.96-.96s.43-.96.96-.96.96.43.96.96-.43.96-.96.96ZM138.19,83.16c-.18,0-.32.14-.32.32s.14.32.32.32.32-.14.32-.32-.14-.32-.32-.32ZM133.72,84.44c-.53,0-.96-.43-.96-.96s.43-.96.96-.96.96.43.96.96-.43.96-.96.96ZM133.72,83.16c-.18,0-.32.14-.32.32s.14.32.32.32.32-.14.32-.32-.14-.32-.32-.32ZM138.19,76.77c-.53,0-.96-.43-.96-.96s.43-.96.96-.96.96.43.96.96-.43.96-.96.96ZM138.19,75.5c-.18,0-.32.14-.32.32s.14.32.32.32.32-.14.32-.32-.14-.32-.32-.32ZM133.72,76.77c-.53,0-.96-.43-.96-.96s.43-.96.96-.96.96.43.96.96-.43.96-.96.96ZM133.72,75.5c-.18,0-.32.14-.32.32s.14.32.32.32.32-.14.32-.32-.14-.32-.32-.32ZM138.19,69.11c-.53,0-.96-.43-.96-.96s.43-.96.96-.96.96.43.96.96-.43.96-.96.96ZM138.19,67.83c-.18,0-.32.14-.32.32s.14.32.32.32.32-.14.32-.32-.14-.32-.32-.32ZM133.72,69.11c-.53,0-.96-.43-.96-.96s.43-.96.96-.96.96.43.96.96-.43.96-.96.96ZM133.72,67.83c-.18,0-.32.14-.32.32s.14.32.32.32.32-.14.32-.32-.14-.32-.32-.32Z" style="fill: #5d5dce;"/>
                </g>
              </g>
            </g>
            <path d="M317.97,106.94H37.87c-.44,0-.8-.36-.8-.8s.36-.8.8-.8h280.1c.44,0,.8.36.8.8s-.36.8-.8.8Z" style="fill: #333;"/>
            <path d="M313.2,111.71c-.21,0-.41-.08-.57-.23-.31-.31-.31-.82,0-1.13l4.21-4.21-4.21-4.21c-.31-.31-.31-.82,0-1.13.31-.31.82-.31,1.13,0l4.77,4.77c.31.31.31.82,0,1.13l-4.77,4.77c-.16.16-.36.23-.57.23Z" style="fill: #333;"/>
            <g>
              <circle cx="75.98" cy="106.14" r="4.24" style="fill: #fff;"/>
              <path d="M75.98,111.18c-2.78,0-5.04-2.26-5.04-5.04s2.26-5.04,5.04-5.04,5.04,2.26,5.04,5.04-2.26,5.04-5.04,5.04ZM75.98,102.7c-1.9,0-3.44,1.54-3.44,3.44s1.54,3.44,3.44,3.44,3.44-1.54,3.44-3.44-1.54-3.44-3.44-3.44Z" style="fill: #333;"/>
            </g>
            <g>
              <circle cx="141.8" cy="106.14" r="4.24" style="fill: #fff;"/>
              <path d="M141.8,111.18c-2.78,0-5.04-2.26-5.04-5.04s2.26-5.04,5.04-5.04,5.04,2.26,5.04,5.04-2.26,5.04-5.04,5.04ZM141.8,102.7c-1.9,0-3.44,1.54-3.44,3.44s1.54,3.44,3.44,3.44,3.44-1.54,3.44-3.44-1.54-3.44-3.44-3.44Z" style="fill: #333;"/>
            </g>
            <g>
              <circle cx="207.63" cy="106.14" r="4.24" style="fill: #fff;"/>
              <path d="M207.63,111.18c-2.78,0-5.04-2.26-5.04-5.04s2.26-5.04,5.04-5.04,5.04,2.26,5.04,5.04-2.26,5.04-5.04,5.04ZM207.63,102.7c-1.9,0-3.44,1.54-3.44,3.44s1.54,3.44,3.44,3.44,3.44-1.54,3.44-3.44-1.54-3.44-3.44-3.44Z" style="fill: #333;"/>
            </g>
            <g>
              <circle cx="273.46" cy="106.14" r="4.24" style="fill: #fff;"/>
              <path d="M273.46,111.18c-2.78,0-5.04-2.26-5.04-5.04s2.26-5.04,5.04-5.04,5.04,2.26,5.04,5.04-2.26,5.04-5.04,5.04ZM273.46,102.7c-1.9,0-3.44,1.54-3.44,3.44s1.54,3.44,3.44,3.44,3.44-1.54,3.44-3.44-1.54-3.44-3.44-3.44Z" style="fill: #333;"/>
            </g>
            <g>
              <path d="M62.25,36.08c.28,0,.54-.04.74-.06v1.16c-.22-.03-.56-.04-.74-.04h-5.33c-.24,0-.52,0-.79.04v-1.16c.26.04.54.06.79.06h3.3c.15-.87.43-2.57.45-3.09h-2.76c-.32,0-.62,0-.9.03v-1.13c.26.03.62.06.9.06h2.53c.21,0,.61-.05.74-.1l.83.42c-.03.11-.07.3-.08.36-.1.73-.38,2.55-.54,3.45h.86Z" style="fill: #333;"/>
              <path d="M64.45,33.76c.29.02.87.05,1.29.05h4.29c.37,0,.73-.03.94-.05v1.26c-.19,0-.6-.04-.94-.04h-4.29c-.46,0-.99.02-1.29.04v-1.26Z" style="fill: #333;"/>
              <path d="M78.32,32.81c.42,0,.66-.02.88-.06v1.06c-.18-.02-.46-.02-.87-.02h-.6v.26c0,1.98-.47,3.19-2.41,4.05l-.86-.81c1.54-.54,2.22-1.23,2.22-3.2v-.3h-1.9v1.09c0,.36.02.68.03.84h-1.12c.02-.16.05-.48.05-.84v-1.09h-.68c-.4,0-.69.02-.86.03v-1.09c.14.02.46.08.86.08h.68v-.8c0-.3-.03-.57-.05-.72h1.14c-.02.15-.05.41-.05.73v.79h1.9v-.85c0-.32-.02-.58-.05-.74h1.14c-.02.16-.06.42-.06.74v.85h.59ZM78.29,32.51c-.11-.34-.26-.78-.41-1.1l.54-.18c.15.32.34.78.42,1.1l-.55.18ZM79.13,32.25c-.11-.34-.26-.78-.43-1.09l.54-.18c.15.32.34.78.44,1.09l-.55.18Z" style="fill: #333;"/>
              <path d="M80.79,33.76c.29.02.87.05,1.29.05h4.29c.37,0,.73-.03.94-.05v1.26c-.19,0-.6-.04-.94-.04h-4.29c-.46,0-.99.02-1.29.04v-1.26Z" style="fill: #333;"/>
              <path d="M92.08,36.85c.3-.04.53-.08.74-.13,1.02-.24,1.8-.97,1.8-2.12s-.59-1.91-1.65-2.09c-.11.67-.25,1.41-.47,2.15-.47,1.6-1.16,2.57-2.02,2.57s-1.62-.97-1.62-2.3c0-1.82,1.59-3.39,3.65-3.39s3.2,1.37,3.2,3.09-1.02,2.85-3.02,3.15l-.59-.94ZM91.46,34.46c.18-.58.33-1.26.42-1.92-1.31.27-2.01,1.42-2.01,2.29,0,.8.32,1.19.62,1.19.33,0,.65-.5.97-1.57Z" style="fill: #333;"/>
              <path d="M59.45,43.33c-.02.18-.02.35-.02.61v2.7c0,.2,0,.51.02.7h-1.18c0-.15.04-.46.04-.7v-2.69c0-.15,0-.43-.03-.61h1.18ZM63.14,43.26c-.02.22-.03.48-.03.8v1.58c0,1.72-.34,2.45-.93,3.11-.53.58-1.36.98-1.94,1.16l-.84-.88c.8-.18,1.47-.49,1.96-1.01.54-.6.65-1.2.65-2.45v-1.52c0-.32-.02-.58-.05-.8h1.18Z" style="fill: #333;"/>
              <path d="M71.43,44.49c-.09.15-.2.38-.26.58-.22.71-.67,1.77-1.39,2.67-.76.93-1.73,1.66-3.23,2.25l-.94-.85c1.64-.49,2.53-1.18,3.22-1.98.54-.62,1.01-1.58,1.14-2.18h-2.25c-.54.7-1.23,1.4-2.02,1.94l-.9-.66c1.4-.86,2.1-1.89,2.49-2.57.12-.2.29-.57.36-.84l1.17.38c-.19.28-.39.64-.49.82l-.02.04h1.61c.25,0,.51-.04.7-.1l.82.5Z" style="fill: #333;"/>
              <path d="M78.54,48.21c.29,0,.54-.03.74-.06v1.16c-.22-.03-.56-.04-.74-.04h-5.27c-.24,0-.52,0-.78.04v-1.16c.25.05.54.06.78.06h2.03v-3.26h-1.54c-.22,0-.56.02-.76.03v-1.1c.21.03.54.05.76.05h4.35c.24,0,.52-.02.75-.05v1.1c-.24-.02-.52-.03-.75-.03h-1.69v3.26h2.12Z" style="fill: #333;"/>
              <path d="M86.46,44.04c-.06.09-.21.34-.28.5-.27.62-.72,1.48-1.26,2.2.79.69,1.76,1.71,2.23,2.29l-.91.79c-.52-.72-1.26-1.54-2.02-2.26-.85.9-1.91,1.73-3.01,2.25l-.82-.86c1.29-.49,2.53-1.46,3.28-2.29.53-.6,1.02-1.39,1.19-1.96h-2.71c-.34,0-.78.05-.94.06v-1.14c.22.03.7.06.94.06h2.81c.35,0,.67-.05.83-.1l.66.49Z" style="fill: #333;"/>
              <path d="M93.69,47.62c-.82-.43-2.02-.9-2.89-1.19v2.26c0,.23.04.79.07,1.11h-1.25c.05-.31.08-.79.08-1.11v-4.59c0-.29-.02-.69-.08-.97h1.25c-.03.28-.07.63-.07.97v1.18c1.07.31,2.61.88,3.34,1.24l-.46,1.1Z" style="fill: #333;"/>
            </g>
            <g>
              <path d="M128.05,32.68c.42,0,.66-.02.88-.06v1.06c-.18-.02-.46-.02-.88-.02h-.59v.26c0,1.98-.48,3.19-2.41,4.04l-.86-.81c1.54-.54,2.22-1.23,2.22-3.19v-.3h-1.9v1.09c0,.35.02.68.03.84h-1.12c.02-.16.05-.48.05-.84v-1.09h-.68c-.4,0-.69.02-.86.03v-1.09c.14.02.46.07.86.07h.68v-.79c0-.3-.03-.57-.05-.72h1.14c-.02.15-.05.41-.05.73v.78h1.9v-.84c0-.32-.02-.58-.05-.74h1.14c-.02.16-.05.42-.05.74v.84h.59Z" style="fill: #333;"/>
              <path d="M130.2,33.76c.29.02.87.05,1.29.05h4.29c.37,0,.73-.03.94-.05v1.26c-.19,0-.6-.04-.94-.04h-4.29c-.46,0-.99.02-1.29.04v-1.26Z" style="fill: #333;"/>
              <path d="M139.86,31.94l1.17.24c-.07.23-.16.62-.19.8-.11.56-.41,1.66-.68,2.41-.29.78-.76,1.69-1.18,2.29l-1.12-.47c.5-.66.98-1.52,1.25-2.22.36-.9.66-2.02.76-3.04ZM141.89,32.18l1.06-.34c.33.62.88,1.85,1.17,2.62.29.72.71,2,.94,2.79l-1.18.38c-.22-.95-.51-1.96-.83-2.82-.3-.84-.82-2.02-1.16-2.63ZM144.43,32.18l-.64.28c-.17-.33-.41-.81-.62-1.11l.63-.26c.2.3.48.8.63,1.1ZM145.39,31.81l-.64.28c-.16-.34-.42-.8-.64-1.1l.63-.26c.21.3.5.81.65,1.09Z" style="fill: #333;"/>
              <path d="M146.56,33.76c.29.02.87.05,1.29.05h4.29c.37,0,.73-.03.94-.05v1.26c-.19,0-.6-.04-.94-.04h-4.29c-.46,0-.99.02-1.29.04v-1.26Z" style="fill: #333;"/>
              <path d="M157.75,31.23c-.05.21-.1.46-.14.66-.05.24-.11.53-.17.82.26-.02.5-.03.66-.03.84,0,1.43.38,1.43,1.51,0,.94-.11,2.2-.45,2.89-.26.55-.7.73-1.3.73-.3,0-.68-.05-.94-.11l-.18-1.05c.3.09.77.17.98.17.26,0,.46-.08.59-.34.22-.44.32-1.38.32-2.17,0-.63-.27-.72-.77-.72-.13,0-.32.02-.54.03-.31,1.2-.89,3.06-1.62,4.23l-1.03-.42c.77-1.04,1.31-2.62,1.59-3.7-.28.03-.53.06-.68.09-.22.02-.63.08-.88.12l-.09-1.07c.29.02.55,0,.84,0,.25,0,.62-.03,1.02-.06.11-.61.18-1.18.17-1.68l1.18.12ZM160.59,32.17c.46.73,1.06,2.06,1.29,2.76l-1.01.47c-.21-.88-.77-2.28-1.34-2.98l.74-.31c-.16-.3-.36-.69-.54-.94l.63-.26c.2.3.48.8.64,1.1l-.41.18ZM161.32,31.9c-.17-.34-.42-.81-.65-1.1l.63-.26c.22.3.51.81.65,1.09l-.63.28Z" style="fill: #333;"/>
              <path d="M116.88,43.33c-.02.18-.02.35-.02.61v2.7c0,.2,0,.51.02.7h-1.18c0-.15.04-.46.04-.7v-2.69c0-.15,0-.43-.03-.61h1.18ZM120.56,43.26c-.02.22-.03.48-.03.8v1.58c0,1.72-.34,2.45-.93,3.11-.53.58-1.36.98-1.94,1.16l-.84-.88c.8-.18,1.47-.49,1.96-1.01.54-.6.65-1.2.65-2.45v-1.52c0-.32-.02-.58-.05-.8h1.18Z" style="fill: #333;"/>
              <path d="M128.85,44.49c-.09.15-.2.38-.26.58-.22.71-.67,1.77-1.39,2.67-.76.93-1.73,1.66-3.23,2.25l-.94-.85c1.64-.49,2.53-1.18,3.22-1.98.54-.62,1.01-1.58,1.14-2.18h-2.25c-.54.7-1.23,1.4-2.02,1.94l-.9-.66c1.4-.86,2.1-1.89,2.49-2.57.12-.2.29-.57.36-.84l1.17.38c-.19.28-.39.64-.49.82l-.02.04h1.61c.25,0,.51-.04.7-.1l.82.5Z" style="fill: #333;"/>
              <path d="M135.96,48.21c.29,0,.54-.03.74-.06v1.16c-.22-.03-.56-.04-.74-.04h-5.27c-.24,0-.52,0-.78.04v-1.16c.25.05.54.06.78.06h2.03v-3.26h-1.54c-.22,0-.56.02-.76.03v-1.1c.21.03.54.05.76.05h4.35c.24,0,.52-.02.75-.05v1.1c-.24-.02-.52-.03-.75-.03h-1.69v3.26h2.12Z" style="fill: #333;"/>
              <path d="M143.88,44.04c-.06.09-.21.34-.28.5-.27.62-.72,1.48-1.26,2.2.79.69,1.76,1.71,2.23,2.29l-.91.79c-.52-.72-1.26-1.54-2.01-2.26-.85.9-1.91,1.73-3.01,2.25l-.82-.86c1.29-.49,2.53-1.46,3.28-2.29.53-.6,1.02-1.39,1.19-1.96h-2.71c-.34,0-.78.05-.94.06v-1.14c.22.03.7.06.94.06h2.81c.35,0,.67-.05.83-.1l.66.49Z" style="fill: #333;"/>
              <path d="M151.12,47.62c-.82-.43-2.02-.9-2.89-1.19v2.26c0,.23.04.79.07,1.11h-1.25c.05-.31.08-.79.08-1.11v-4.59c0-.29-.02-.69-.08-.97h1.25c-.03.28-.07.63-.07.97v1.18c1.07.31,2.61.88,3.34,1.24l-.46,1.1Z" style="fill: #333;"/>
              <path d="M159.12,46.77c-.36.78-.89,1.39-1.54,1.86.77.27,1.66.46,2.65.54-.2.22-.46.63-.58.89-1.16-.14-2.19-.42-3.05-.84-.92.44-1.98.7-3.11.86-.1-.22-.36-.65-.56-.84,1-.1,1.93-.29,2.72-.58-.49-.34-.91-.77-1.26-1.26l.26-.11h-.38v-.87h4.04l.18-.04.64.39ZM154,46.71h-.89v-1.73h1.14c-.08-.25-.23-.57-.38-.82l.71-.2c-.4.02-.81.04-1.19.05-.02-.24-.13-.6-.22-.81,2.1-.07,4.51-.26,5.96-.54l.64.77c-.86.16-1.9.29-2.96.38.16.32.31.74.36,1.03l-.59.14h1.39c.19-.37.4-.84.52-1.2l1.01.24c-.18.34-.39.66-.58.96h1.13v1.73h-.93v-.91h-5.16v.91ZM156.77,43.8c-.67.06-1.37.11-2.05.14.18.3.37.66.45.91l-.42.12h1.53c-.05-.28-.17-.68-.3-.99l.79-.18ZM155.38,47.29c.33.36.74.66,1.22.93.42-.26.8-.56,1.09-.93h-2.3Z" style="fill: #333;"/>
              <path d="M163.92,42.99c-.21.51-.46,1.04-.74,1.54v5.6h-.9v-4.22c-.22.28-.44.53-.66.75-.09-.22-.34-.74-.5-.97.76-.72,1.5-1.85,1.93-2.99l.88.29ZM168.74,44.14v.77h-5.12v-.77h5.12ZM164.13,47.57h4.17v2.56h-.96v-.3h-2.3v.32h-.91v-2.58ZM168.19,46.03h-3.93v-.74h3.93v.74ZM164.25,46.43h3.9v.74h-3.9v-.74ZM168.04,43.75h-3.66v-.74h3.66v.74ZM165.04,48.3v.78h2.3v-.78h-2.3Z" style="fill: #333;"/>
            </g>
            <g>
              <path d="M192.47,31.55h1.18v2.33h2.24v-2.33h1.17v5.92h-1.17v-2.56h-2.24v2.56h-1.18v-5.92Z" style="fill: #333;"/>
              <path d="M200.1,32.53h-1.66v-.98h4.53v.98h-1.68v4.93h-1.18v-4.93Z" style="fill: #333;"/>
              <path d="M204.32,31.55h1.31l1.01,2.77c.13.37.24.76.36,1.14h.04c.13-.38.23-.78.36-1.14l.98-2.77h1.31v5.92h-1.08v-2.47c0-.56.09-1.38.14-1.94h-.03l-.48,1.39-.91,2.49h-.68l-.92-2.49-.47-1.39h-.03c.06.56.15,1.38.15,1.94v2.47h-1.06v-5.92Z" style="fill: #333;"/>
              <path d="M211.56,31.55h1.18v4.92h2.4v.99h-3.58v-5.92Z" style="fill: #333;"/>
              <path d="M219.79,36.31c.02-.23.02-.6.03-.94-.58.32-.9.63-.9,1.02,0,.44.38.56,1.15.56.67,0,1.55-.09,2.25-.23l-.03,1.03c-.53.06-1.5.13-2.24.13-1.24,0-2.17-.3-2.17-1.32s.96-1.65,1.86-2.11c-.13-.2-.33-.27-.55-.27-.45,0-.94.26-1.24.54-.24.24-.46.53-.74.87l-.85-.63c.83-.77,1.39-1.47,1.74-2.17h-.1c-.32,0-.9-.02-1.33-.06v-.93c.4.06.99.09,1.39.09h.38c.1-.36.15-.68.16-.9l1.04.09c-.04.19-.1.46-.19.78.74-.04,1.54-.1,2.24-.23v.93c-.77.11-1.74.18-2.59.21-.13.28-.29.57-.46.8.21-.1.63-.16.89-.16.48,0,.88.21,1.06.62.41-.19.74-.33,1.07-.47.3-.14.58-.27.87-.41l.4.92c-.26.06-.67.22-.94.34-.35.14-.8.31-1.29.54,0,.44.02,1.02.03,1.38h-.95Z" style="fill: #333;"/>
              <path d="M194.52,44.49s0,.31,0,.42c-.07,3.27-.14,4.43-.39,4.8-.18.26-.37.34-.63.4-.24.05-.61.04-.99.03-.02-.26-.12-.65-.28-.91.35.03.66.04.81.04.12,0,.2-.03.27-.14.17-.22.25-1.19.29-3.77h-.72c-.1,2.14-.47,3.79-1.82,4.85-.12-.19-.35-.46-.56-.63-1.15.12-2.3.24-3.17.31l-.11-.8c.45-.03,1.01-.07,1.62-.11v-.48h-1.41v-.67h1.41v-.31h-1.38v-2.47h1.38v-.31h-1.58v-.69h1.58v-.32c-.46.03-.92.06-1.35.06-.03-.19-.12-.49-.21-.67,1.18-.06,2.57-.2,3.45-.39l.42.71c-.42.09-.92.16-1.44.22v.39h1.54v.44h.75c0-.53,0-1.08,0-1.67h.91c0,.58,0,1.14-.02,1.67h1.62ZM188.22,46h.62v-.35h-.62v.35ZM188.85,46.93v-.36h-.62v.36h.62ZM189.71,48.91c.46-.03.93-.07,1.39-.11.62-.86.82-2.01.87-3.44h-.73v-.62h-1.54v.31h1.41v2.47h-1.41v.31h1.45v.67h-1.45v.41ZM190.34,46v-.35h-.62v.35h.62ZM189.71,46.57v.36h.62v-.36h-.62Z" style="fill: #333;"/>
              <path d="M202.89,43.92s0,.32,0,.43c-.1,3.57-.19,4.85-.52,5.27-.22.3-.45.38-.77.44-.3.04-.78.03-1.25.02-.02-.26-.14-.66-.31-.93.51.05.98.05,1.19.05.16,0,.25-.03.35-.14.23-.26.34-1.46.42-4.28h-1.71c-.21.48-.46.92-.7,1.26-.13-.12-.4-.3-.62-.45v3.73h-2.13v.58h-.86v-5.94h.9c.1-.4.2-.91.23-1.29l1.04.14c-.14.4-.28.8-.42,1.14h1.24v1.29c.46-.67.85-1.64,1.08-2.57l.9.21c-.08.34-.19.68-.31,1.02h2.25ZM198.1,44.81h-1.27v1.3h1.27v-1.3ZM198.1,48.49v-1.57h-1.27v1.57h1.27ZM200.76,48.06c-.22-.48-.72-1.26-1.11-1.85l.74-.42c.4.55.93,1.31,1.18,1.77l-.81.5Z" style="fill: #333;"/>
              <path d="M206.1,43.36c-.06.16-.16.56-.19.7-.11.53-.38,2.11-.38,2.9,0,.15,0,.34.03.51.11-.28.24-.54.35-.8l.5.38c-.22.66-.49,1.52-.57,1.94-.02.11-.05.29-.05.37,0,.09,0,.22.02.33l-.91.06c-.16-.55-.31-1.52-.31-2.59,0-1.19.24-2.53.33-3.13.03-.22.08-.53.08-.78l1.11.1ZM207.95,47.27c-.06.26-.1.45-.1.66,0,.35.3.56,1.1.56.71,0,1.29-.06,1.98-.21l.02,1.07c-.51.1-1.15.16-2.05.16-1.37,0-2.01-.5-2.01-1.3,0-.33.06-.66.14-1.03l.91.09ZM210.72,43.88v1.02c-.98.09-2.41.09-3.4,0v-1.02c.97.14,2.54.1,3.4,0Z" style="fill: #333;"/>
              <path d="M219.51,49v.94h-7.19v-.94h3.09v-1.61h-2.17v-.92h2.17v-1.41h-1.66c-.23.44-.48.85-.74,1.16-.19-.15-.62-.44-.86-.57.62-.67,1.14-1.77,1.41-2.86l.98.22c-.11.38-.24.76-.38,1.13h1.23v-1.44h1v1.44h2.69v.93h-2.69v1.41h2.39v.92h-2.39v1.61h3.1Z" style="fill: #333;"/>
              <path d="M227.52,45.47c-.33,1.04-.8,1.97-1.38,2.74.23.58.49.91.74.91.19,0,.29-.4.33-1.4.21.22.55.43.81.54-.15,1.48-.47,1.83-1.21,1.83-.56,0-1-.4-1.35-1.06-.41.42-.86.78-1.35,1.09-.14-.21-.49-.6-.69-.78.62-.34,1.17-.78,1.63-1.29-.27-.9-.45-2.02-.55-3.22h-2.32v.86h1.98s0,.25,0,.36c-.02,1.68-.07,2.39-.26,2.62-.15.21-.31.28-.55.32-.21.03-.55.03-.92.02-.02-.28-.12-.65-.26-.89.29.02.56.03.69.03.11,0,.18-.02.24-.1.08-.11.11-.5.14-1.5h-1.04c-.03,1.17-.2,2.73-.86,3.7-.17-.18-.59-.54-.81-.65.61-.96.66-2.35.66-3.39v-2.33h3.26c-.02-.39-.03-.78-.03-1.18h1c0,.4,0,.79.02,1.18h1.22c-.3-.24-.7-.5-1.02-.7l.58-.57c.44.22,1.02.59,1.3.86l-.38.41h.83v.94h-2.47c.07.8.18,1.55.32,2.19.31-.54.58-1.13.77-1.77l.95.23Z" style="fill: #333;"/>
            </g>
            <g>
              <path d="M260.06,31.9l.5.33c-.07.15-.13.38-.18.55-.18.78-.53,2.02-1.2,2.91-.72.96-1.78,1.75-3.21,2.21l-.87-.95c1.59-.38,2.49-1.06,3.13-1.88.53-.66.83-1.57.94-2.25h-3.73c-.37,0-.74.02-.95.03v-1.13c.23.03.69.06.95.06h3.7c.1,0,.23,0,.38-.02-.14-.26-.3-.54-.45-.78l.66-.27c.21.3.47.77.62,1.06l-.29.13ZM260.86,30.52c.2.29.49.78.64,1.06l-.66.29c-.18-.33-.42-.78-.64-1.07l.66-.27Z" style="fill: #333;"/>
              <path d="M268.43,33.65c-.06.1-.12.25-.15.34-.24.78-.58,1.55-1.18,2.21-.81.9-1.83,1.44-2.85,1.73l-.8-.9c1.21-.25,2.17-.78,2.77-1.4.43-.44.68-.94.82-1.38h-3.86c-.19,0-.59,0-.93.04v-1.04c.34.03.68.05.93.05h3.96c.26,0,.47-.03.58-.08l.71.44ZM262.98,31.33c.22.03.56.04.83.04h3.08c.25,0,.64,0,.86-.04v1.03c-.22-.02-.59-.02-.88-.02h-3.06c-.26,0-.6,0-.83.02v-1.03Z" style="fill: #333;"/>
              <path d="M276.5,32.62c-.06.18-.13.48-.16.64-.14.77-.35,1.54-.74,2.26-.64,1.18-1.84,2.03-3.26,2.4l-.83-.96c.36-.06.8-.18,1.13-.31.66-.25,1.37-.72,1.81-1.37.41-.58.62-1.34.71-2.06h-3.97v1.17c0,.18,0,.43.02.59h-1.1c.02-.2.04-.46.04-.67v-1.38c0-.18,0-.5-.04-.69.28.03.51.04.82.04h1.71v-.62c0-.22,0-.39-.06-.74h1.23c-.04.34-.06.51-.06.74v.62h1.39c.34,0,.53-.04.66-.09l.7.42Z" style="fill: #333;"/>
              <path d="M283.88,32.81c.42,0,.66-.02.88-.06v1.06c-.18-.02-.46-.02-.87-.02h-.6v.26c0,1.98-.47,3.19-2.41,4.05l-.86-.81c1.54-.54,2.22-1.23,2.22-3.2v-.3h-1.9v1.09c0,.36.02.68.03.84h-1.12c.02-.16.05-.48.05-.84v-1.09h-.68c-.4,0-.69.02-.86.03v-1.09c.14.02.46.08.86.08h.68v-.8c0-.3-.03-.57-.05-.72h1.14c-.02.15-.05.41-.05.73v.79h1.9v-.85c0-.32-.02-.58-.05-.74h1.14c-.02.16-.06.42-.06.74v.85h.59ZM283.85,32.51c-.11-.34-.26-.78-.41-1.1l.54-.18c.15.32.34.78.42,1.1l-.55.18ZM284.69,32.25c-.11-.34-.26-.78-.43-1.09l.54-.18c.15.32.34.78.44,1.09l-.55.18Z" style="fill: #333;"/>
              <path d="M286.75,31.95c.66-.06,1.97-.18,3.42-.3.82-.06,1.68-.11,2.24-.14v1.02c-.42,0-1.1,0-1.52.1-.96.26-1.67,1.28-1.67,2.21,0,1.3,1.22,1.77,2.56,1.84l-.37,1.1c-1.66-.1-3.23-1-3.23-2.72,0-1.14.63-2.04,1.17-2.44-.69.07-2.35.25-3.27.45l-.1-1.09c.32,0,.62-.02.78-.04ZM291.95,34.39l-.61.27c-.2-.44-.37-.75-.62-1.11l.59-.25c.19.29.49.77.64,1.09ZM292.88,34l-.6.29c-.22-.43-.4-.73-.66-1.08l.58-.27c.2.28.5.75.67,1.06Z" style="fill: #333;"/>
              <path d="M249.84,46.58c.37-.37.99-1.15,1.54-1.81.48-.57.91-.62,1.57-.07.54.46,1.14,1.09,1.63,1.62.54.58,1.39,1.5,1.97,2.16l-.86.93c-.51-.66-1.24-1.54-1.71-2.1-.5-.59-1.17-1.33-1.47-1.58-.28-.24-.42-.24-.65.05-.31.4-.89,1.19-1.22,1.63-.18.25-.38.54-.51.74l-.94-.97c.24-.2.42-.37.66-.61ZM255.18,43.53c.58,0,1.04.46,1.04,1.04s-.46,1.03-1.04,1.03-1.03-.46-1.03-1.03.46-1.04,1.03-1.04ZM255.18,45.07c.28,0,.51-.22.51-.5s-.23-.51-.51-.51-.5.23-.5.51.22.5.5.5Z" style="fill: #333;"/>
              <path d="M257.87,45.76c.29.02.87.05,1.29.05h4.29c.37,0,.73-.03.94-.05v1.26c-.19,0-.6-.04-.94-.04h-4.29c-.46,0-.99.02-1.29.04v-1.26Z" style="fill: #333;"/>
              <path d="M268.17,46.12l-.58.9c-.46-.32-1.29-.86-1.82-1.14l.58-.88c.54.29,1.42.84,1.83,1.13ZM268.81,47.94c1.36-.76,2.48-1.85,3.11-3l.62,1.09c-.74,1.11-1.87,2.12-3.17,2.88-.82.46-1.97.86-2.67.98l-.6-1.05c.9-.15,1.85-.42,2.72-.9ZM269.4,44.31l-.59.88c-.45-.31-1.28-.85-1.81-1.14l.58-.88c.53.29,1.41.86,1.82,1.14ZM271.78,44.56l-.7.3c-.23-.5-.42-.85-.7-1.26l.66-.28c.23.34.55.87.74,1.24ZM272.9,44.13l-.68.3c-.26-.5-.46-.82-.75-1.22l.68-.28c.25.32.56.84.75,1.19Z" style="fill: #333;"/>
              <path d="M277.4,48.31c.02-.23.02-.6.03-.94-.58.32-.9.63-.9,1.02,0,.44.38.56,1.15.56.67,0,1.55-.09,2.25-.23l-.03,1.03c-.53.06-1.5.13-2.24.13-1.24,0-2.17-.3-2.17-1.32s.96-1.65,1.86-2.11c-.13-.2-.34-.27-.55-.27-.45,0-.94.26-1.24.54-.24.24-.46.53-.74.87l-.85-.63c.83-.77,1.39-1.47,1.74-2.17h-.1c-.32,0-.9-.02-1.33-.06v-.93c.4.06.99.09,1.39.09h.38c.1-.36.15-.68.16-.9l1.04.09c-.04.19-.1.46-.19.78.74-.04,1.54-.1,2.24-.23v.93c-.77.11-1.74.18-2.59.21-.13.28-.29.57-.46.8.21-.1.63-.16.9-.16.48,0,.88.21,1.06.62.41-.19.74-.33,1.07-.47.3-.14.58-.27.87-.41l.4.92c-.26.06-.67.22-.94.34-.35.14-.8.31-1.29.54,0,.44.02,1.02.03,1.38h-.95Z" style="fill: #333;"/>
              <path d="M289.04,47.15c-.5.36-1.09.73-1.58,1,.47.52,1.09.91,1.88,1.14-.21.2-.48.58-.62.85-1.69-.58-2.57-1.79-3.09-3.57-.3.29-.66.56-1.05.81v1.49c.57-.12,1.17-.25,1.74-.38l.09.86c-1.25.3-2.6.58-3.59.79l-.28-.88c.31-.06.69-.13,1.09-.21v-1.14c-.44.22-.89.39-1.33.53-.14-.22-.41-.58-.61-.77.95-.25,1.98-.7,2.73-1.22h-2.43v-.81h3.05v-.45h-2.38v-.76h2.38v-.41h-2.75v-.81h2.75v-.53h.95v.53h2.81v.81h-2.81v.41h2.5v.76h-2.5v.45h3.07v.81h-2.54c.13.39.28.74.48,1.07.45-.3.93-.66,1.25-.96l.79.59Z" style="fill: #333;"/>
              <path d="M292.52,46.92c-.35.94-.95,1.9-1.52,2.5-.2-.17-.63-.45-.88-.57.58-.53,1.11-1.38,1.39-2.2l1.01.26ZM294.47,46.07v2.97c0,.54-.11.8-.49.95-.37.15-.9.17-1.59.17-.05-.3-.19-.73-.34-1.02.46.02,1.02.03,1.17.02.15,0,.21-.04.21-.15v-2.94h-3.05v-.95h7.11v.95h-3.01ZM296.74,44.15h-5.64v-.94h5.64v.94ZM296.18,46.62c.53.74,1.1,1.7,1.33,2.38l-.99.44c-.18-.66-.72-1.69-1.23-2.45l.9-.38Z" style="fill: #333;"/>
            </g>
          </g>
        </g>
      </g>
    </g>
  </g>
</svg>