<?xml version="1.0" encoding="utf-8" standalone="yes"?>
<!DOCTYPE svg PUBLIC "-//W3C//DTD SVG 1.1//EN" "http://www.w3.org/Graphics/SVG/1.1/DTD/svg11.dtd">
<svg width="676" height="290" viewBox="0 0 676 290" style="fill:none;stroke:none;fill-rule:evenodd;clip-rule:evenodd;stroke-linecap:round;stroke-linejoin:round;stroke-miterlimit:1.5;" version="1.1" xmlns="http://www.w3.org/2000/svg" xmlns:xlink="http://www.w3.org/1999/xlink"><style id="fontImports">@import url("https://fonts.googleapis.com/css2?family=Shantell+Sans:wght@300..800&amp;display=block");</style><g id="blend" style="mix-blend-mode:multiply"><g id="g-root-4.head_sy_meucxreh65n3-fill" data-item-order="-15547" data-item-id="4.head_sy_meucxreh65n3" data-item-class="ScenePart Indexed Stroke ColorStrokeBlack" data-item-index="4" data-renderer-id="0" transform="translate(640, 241.99609375)"></g><g id="g-root-4.s2_sy_qunv27eh65mo-fill" data-item-order="-15545" data-item-id="4.s2_sy_qunv27eh65mo" data-item-class="ScenePart Indexed Stroke ColorStrokeBlack" data-item-index="4" data-renderer-id="0" transform="translate(583, 254)"></g><g id="g-root-4.cu-smallCircle_sy_hz0utbeh66fd-fill" data-item-order="-15543" data-item-id="4.cu-smallCircle_sy_hz0utbeh66fd" data-item-class="ScenePart Indexed Stroke ColorStrokeBlack" data-item-index="4" data-renderer-id="0" transform="translate(577, 251)"></g><g id="g-root-3.s3_sy_meucxreh65n1-fill" data-item-order="-15541" data-item-id="3.s3_sy_meucxreh65n1" data-item-class="ScenePart Indexed Stroke ColorStrokeBlack" data-item-index="3" data-renderer-id="0" transform="translate(415, 253.99609375)"></g><g id="g-root-3.cu-smallCircle_sy_meucxreh65n2-fill" data-item-order="-15539" data-item-id="3.cu-smallCircle_sy_meucxreh65n2" data-item-class="ScenePart Indexed Stroke ColorStrokeBlack" data-item-index="3" data-renderer-id="0" transform="translate(409, 251)"></g><g id="g-root-2.s4_sy_meucxreh65mz-fill" data-item-order="-15537" data-item-id="2.s4_sy_meucxreh65mz" data-item-class="ScenePart Indexed Stroke ColorStrokeBlack" data-item-index="2" data-renderer-id="0" transform="translate(247, 254)"></g><g id="g-root-2.cu-smallCircle_sy_meucxreh65n0-fill" data-item-order="-15535" data-item-id="2.cu-smallCircle_sy_meucxreh65n0" data-item-class="ScenePart Indexed Stroke ColorStrokeBlack" data-item-index="2" data-renderer-id="0" transform="translate(241, 251)"></g><g id="g-root-1.s5_sy_vahd6neh64u8-fill" data-item-order="-15533" data-item-id="1.s5_sy_vahd6neh64u8" data-item-class="ScenePart Indexed Indexed_1 Stroke ColorStrokeBlack" data-item-index="1" data-renderer-id="0" transform="translate(79, 254)"></g><g id="g-root-1.s6_sy_vahd6neh64u9-fill" data-item-order="-15531" data-item-id="1.s6_sy_vahd6neh64u9" data-item-class="ScenePart Indexed Indexed_1 Stroke ColorStrokeBlack" data-item-index="1" data-renderer-id="0" transform="translate(4, 253.99609375)"></g><g id="g-root-1.cu-smallCircle_sy_vahd6neh64ua-fill" data-item-order="-15529" data-item-id="1.cu-smallCircle_sy_vahd6neh64ua" data-item-class="ScenePart Indexed Indexed_1 Stroke ColorStrokeBlack" data-item-index="1" data-renderer-id="0" transform="translate(73, 251)"></g><g id="g-root-tx__4o6tj3eh64um-fill" data-item-order="0" data-item-id="tx__4o6tj3eh64um" data-item-class="Label Stroke SceneTarget SceneTitle ColorStrokeBlack" data-item-index="none" data-renderer-id="0" transform="translate(190, 2)"><g id="tx__4o6tj3eh64um-fill" stroke="none" fill="#484848"><g><text style="font: bold 25px &quot;Shantell Sans&quot;, cursive; white-space: pre;"><tspan x="12.13" y="44.5" dominant-baseline="ideographic">サーバーでのページ生成</tspan></text></g></g></g><g id="g-root-tx__4o6tj3eh64ul-fill" data-item-order="0" data-item-id="tx__4o6tj3eh64ul" data-item-class="Label Stroke SceneTarget Indexed Indexed_1 ColorStrokeBlack" data-item-index="1" data-renderer-id="0" transform="translate(4, 134)"><g id="tx__4o6tj3eh64ul-fill" stroke="none" fill="#484848"><g><text style="font: 20px &quot;Shantell Sans&quot;, cursive; white-space: pre;"><tspan x="12.58" y="35.5" dominant-baseline="ideographic">ユーザーのリク</tspan><tspan x="52" y="59.5" dominant-baseline="ideographic">エスト</tspan></text></g></g></g><g id="g-root-tx__djttrzeh641w-fill" data-item-order="0" data-item-id="tx__djttrzeh641w" data-item-class="Label Stroke SceneTarget Indexed ColorStrokeBlack" data-item-index="2" data-renderer-id="0" transform="translate(172, 134)"><g id="tx__djttrzeh641w-fill" stroke="none" fill="#484848"><g><text style="font: 20px &quot;Shantell Sans&quot;, cursive; white-space: pre;"><tspan x="13.18" y="35.5" dominant-baseline="ideographic">サーバーでの処</tspan><tspan x="71.99" y="59.5" dominant-baseline="ideographic">理</tspan></text></g></g></g><g id="g-root-tx__hz0utbeh66fe-fill" data-item-order="0" data-item-id="tx__hz0utbeh66fe" data-item-class="Label Stroke SceneTarget Indexed ColorStrokeBlack" data-item-index="4" data-renderer-id="0" transform="translate(514, 134)"><g id="tx__hz0utbeh66fe-fill" stroke="none" fill="#484848"><g><text style="font: 20px &quot;Shantell Sans&quot;, cursive; white-space: pre;"><tspan x="15.98" y="35.5" dominant-baseline="ideographic">ブラウザに表</tspan><tspan x="65.99" y="59.5" dominant-baseline="ideographic">示</tspan></text></g></g></g><g id="g-root-tx__djttrzeh641v-fill" data-item-order="0" data-item-id="tx__djttrzeh641v" data-item-class="Label Stroke SceneTarget Indexed ColorStrokeBlack" data-item-index="3" data-renderer-id="0" transform="translate(358, 158)"><g id="tx__djttrzeh641v-fill" stroke="none" fill="#484848"><g><text style="font: 20px &quot;Shantell Sans&quot;, cursive; white-space: pre;"><tspan x="14.29" y="35.5" dominant-baseline="ideographic">ページ生成</tspan></text></g></g></g><g id="g-root-circ_1uqjhtreh8wlo-fill" data-item-order="0" data-item-id="circ_1uqjhtreh8wlo" data-item-class="Icon Stroke SceneTarget Indexed Indexed_1 ColorStrokeBlack" data-item-index="1" data-renderer-id="0" transform="translate(52, 194)"></g><g id="g-root-1_4kfz0feh8z5v-fill" data-item-order="0" data-item-id="1_4kfz0feh8z5v" data-item-class="Icon Stroke SceneTarget Indexed ColorStrokeBlack" data-item-index="2" data-renderer-id="0" transform="translate(220, 194)"></g><g id="g-root-pyra_909h4veh8ydm-fill" data-item-order="0" data-item-id="pyra_909h4veh8ydm" data-item-class="Icon Stroke SceneTarget Indexed ColorStrokeBlack" data-item-index="3" data-renderer-id="0" transform="translate(388, 194)"></g><g id="g-root-web_qnsn3zeh8yrt-fill" data-item-order="0" data-item-id="web_qnsn3zeh8yrt" data-item-class="Icon Stroke SceneTarget Indexed ColorStrokeBlack" data-item-index="4" data-renderer-id="0" transform="translate(556, 194)"></g><g id="g-root-4.head_sy_meucxreh65n3-stroke" data-item-order="-15547" data-item-id="4.head_sy_meucxreh65n3" data-item-class="ScenePart Indexed Stroke ColorStrokeBlack" data-item-index="4" data-renderer-id="0" transform="translate(640, 241.99609375)"><g id="4.head_sy_meucxreh65n3-stroke" fill="none" stroke-linecap="round" stroke-linejoin="round" stroke-miterlimit="4" stroke="#484848" stroke-width="4"><g><path d="M 10 34.004C 13.7 29.804 19.1 26.804 22 22.004C 18.3 17.704 14.4 13.604 10 10.004M 10 34L 22 21.992L 10.016 10"></path></g></g></g><g id="g-root-4.s2_sy_qunv27eh65mo-stroke" data-item-order="-15545" data-item-id="4.s2_sy_qunv27eh65mo" data-item-class="ScenePart Indexed Stroke ColorStrokeBlack" data-item-index="4" data-renderer-id="0" transform="translate(583, 254)"><g id="4.s2_sy_qunv27eh65mo-stroke" fill="none" stroke-linecap="round" stroke-linejoin="round" stroke-miterlimit="4" stroke="#484848" stroke-width="4"><g><path d="M 10 10C 10 10 75.8 9.7 79 10M 10 10C 10 10 75.84 10 79 10"></path></g></g></g><g id="g-root-4.cu-smallCircle_sy_hz0utbeh66fd-stroke" data-item-order="-15543" data-item-id="4.cu-smallCircle_sy_hz0utbeh66fd" data-item-class="ScenePart Indexed Stroke ColorStrokeBlack" data-item-index="4" data-renderer-id="0" transform="translate(577, 251)"><g id="4.cu-smallCircle_sy_hz0utbeh66fd-stroke" fill="none" stroke-linecap="round" stroke-linejoin="round" stroke-miterlimit="4" stroke="#484848" stroke-width="4"><g><path d="M 13 16C 14.6 16.5 16.3 14.6 16 13C 15.7 11.4 14.7 10 13 10C 11.3 10 10 11.3 10 13C 10 14.7 11.4 15.6 13 16M 13 16C 14.657 16 16 14.657 16 13C 16 11.343 14.657 10 13 10C 11.343 10 10 11.343 10 13C 10 14.657 11.343 16 13 16Z"></path></g></g></g><g id="g-root-3.s3_sy_meucxreh65n1-stroke" data-item-order="-15541" data-item-id="3.s3_sy_meucxreh65n1" data-item-class="ScenePart Indexed Stroke ColorStrokeBlack" data-item-index="3" data-renderer-id="0" transform="translate(415, 253.99609375)"><g id="3.s3_sy_meucxreh65n1-stroke" fill="none" stroke-linecap="round" stroke-linejoin="round" stroke-miterlimit="4" stroke="#484848" stroke-width="4"><g><path d="M 10 10.004C 36.9 11.104 63.9 10.004 90.8 10.004C 117.9 9.904 145 8.404 172 10.004M 10 10L 172 10.004"></path></g></g></g><g id="g-root-3.cu-smallCircle_sy_meucxreh65n2-stroke" data-item-order="-15539" data-item-id="3.cu-smallCircle_sy_meucxreh65n2" data-item-class="ScenePart Indexed Stroke ColorStrokeBlack" data-item-index="3" data-renderer-id="0" transform="translate(409, 251)"><g id="3.cu-smallCircle_sy_meucxreh65n2-stroke" fill="none" stroke-linecap="round" stroke-linejoin="round" stroke-miterlimit="4" stroke="#484848" stroke-width="4"><g><path d="M 13 16C 14.6 15.5 15.4 14.5 16 13C 16.6 11.5 14.7 10.2 13 10C 11.4 9.8 9.6 11.4 10 13C 10.4 14.6 11.3 16 13 16M 13 16C 14.657 16 16 14.657 16 13C 16 11.343 14.657 10 13 10C 11.343 10 10 11.343 10 13C 10 14.657 11.343 16 13 16Z"></path></g></g></g><g id="g-root-2.s4_sy_meucxreh65mz-stroke" data-item-order="-15537" data-item-id="2.s4_sy_meucxreh65mz" data-item-class="ScenePart Indexed Stroke ColorStrokeBlack" data-item-index="2" data-renderer-id="0" transform="translate(247, 254)"><g id="2.s4_sy_meucxreh65mz-stroke" fill="none" stroke-linecap="round" stroke-linejoin="round" stroke-miterlimit="4" stroke="#484848" stroke-width="4"><g><path d="M 10 10C 35.9 10.2 61.8 10.8 87.7 10C 115.8 9.1 144 8.2 172 10M 10 10L 172 10"></path></g></g></g><g id="g-root-2.cu-smallCircle_sy_meucxreh65n0-stroke" data-item-order="-15535" data-item-id="2.cu-smallCircle_sy_meucxreh65n0" data-item-class="ScenePart Indexed Stroke ColorStrokeBlack" data-item-index="2" data-renderer-id="0" transform="translate(241, 251)"><g id="2.cu-smallCircle_sy_meucxreh65n0-stroke" fill="none" stroke-linecap="round" stroke-linejoin="round" stroke-miterlimit="4" stroke="#484848" stroke-width="4"><g><path d="M 13 16C 14.7 16 16.3 14.6 16 13C 15.7 11.4 14.7 10 13 10C 11.3 10 10.3 11.4 10 13C 9.7 14.6 11.4 15.8 13 16M 13 16C 14.657 16 16 14.657 16 13C 16 11.343 14.657 10 13 10C 11.343 10 10 11.343 10 13C 10 14.657 11.343 16 13 16Z"></path></g></g></g><g id="g-root-1.s5_sy_vahd6neh64u8-stroke" data-item-order="-15533" data-item-id="1.s5_sy_vahd6neh64u8" data-item-class="ScenePart Indexed Indexed_1 Stroke ColorStrokeBlack" data-item-index="1" data-renderer-id="0" transform="translate(79, 254)"><g id="1.s5_sy_vahd6neh64u8-stroke" fill="none" stroke-linecap="round" stroke-linejoin="round" stroke-miterlimit="4" stroke="#484848" stroke-width="4"><g><path d="M 10 10C 39.6 9.9 69.3 8 98.9 10C 123.2 11.6 147.6 10.1 172 10M 10 10L 172 10"></path></g></g></g><g id="g-root-1.s6_sy_vahd6neh64u9-stroke" data-item-order="-15531" data-item-id="1.s6_sy_vahd6neh64u9" data-item-class="ScenePart Indexed Indexed_1 Stroke ColorStrokeBlack" data-item-index="1" data-renderer-id="0" transform="translate(4, 253.99609375)"><g id="1.s6_sy_vahd6neh64u9-stroke" fill="none" stroke-linecap="round" stroke-linejoin="round" stroke-miterlimit="4" stroke="#484848" stroke-width="4"><g><path d="M 10 10.004C 10 10.004 75.9 9.504 79 10.004M 10 10C 10 10 75.837 10 78.998 10"></path></g></g></g><g id="g-root-1.cu-smallCircle_sy_vahd6neh64ua-stroke" data-item-order="-15529" data-item-id="1.cu-smallCircle_sy_vahd6neh64ua" data-item-class="ScenePart Indexed Indexed_1 Stroke ColorStrokeBlack" data-item-index="1" data-renderer-id="0" transform="translate(73, 251)"><g id="1.cu-smallCircle_sy_vahd6neh64ua-stroke" fill="none" stroke-linecap="round" stroke-linejoin="round" stroke-miterlimit="4" stroke="#484848" stroke-width="4"><g><path d="M 13 16C 14.6 16.3 16.3 14.6 16 13C 15.7 11.4 14.6 10.4 13 10C 11.4 9.7 9.4 11.5 10 13C 10.6 14.5 11.4 15.7 13 16M 13 16C 14.657 16 16 14.657 16 13C 16 11.343 14.657 10 13 10C 11.343 10 10 11.343 10 13C 10 14.657 11.343 16 13 16Z"></path></g></g></g><g id="g-root-tx__4o6tj3eh64um-stroke" data-item-order="0" data-item-id="tx__4o6tj3eh64um" data-item-class="Label Stroke SceneTarget SceneTitle ColorStrokeBlack" data-item-index="none" data-renderer-id="0" transform="translate(190, 2)"></g><g id="g-root-tx__4o6tj3eh64ul-stroke" data-item-order="0" data-item-id="tx__4o6tj3eh64ul" data-item-class="Label Stroke SceneTarget Indexed Indexed_1 ColorStrokeBlack" data-item-index="1" data-renderer-id="0" transform="translate(4, 134)"></g><g id="g-root-tx__djttrzeh641w-stroke" data-item-order="0" data-item-id="tx__djttrzeh641w" data-item-class="Label Stroke SceneTarget Indexed ColorStrokeBlack" data-item-index="2" data-renderer-id="0" transform="translate(172, 134)"></g><g id="g-root-tx__hz0utbeh66fe-stroke" data-item-order="0" data-item-id="tx__hz0utbeh66fe" data-item-class="Label Stroke SceneTarget Indexed ColorStrokeBlack" data-item-index="4" data-renderer-id="0" transform="translate(514, 134)"></g><g id="g-root-tx__djttrzeh641v-stroke" data-item-order="0" data-item-id="tx__djttrzeh641v" data-item-class="Label Stroke SceneTarget Indexed ColorStrokeBlack" data-item-index="3" data-renderer-id="0" transform="translate(358, 158)"></g><g id="g-root-circ_1uqjhtreh8wlo-stroke" data-item-order="0" data-item-id="circ_1uqjhtreh8wlo" data-item-class="Icon Stroke SceneTarget Indexed Indexed_1 ColorStrokeBlack" data-item-index="1" data-renderer-id="0" transform="translate(52, 194)"><g id="circ_1uqjhtreh8wlo-stroke" fill="none" stroke-linecap="round" stroke-linejoin="round" stroke-miterlimit="4" stroke="#484848" stroke-width="2"><g><path d="M 25.429 28.857C 23.714 33.314 29.2 37.429 34 37.429C 38.8 37.429 41.543 33.314 42.571 28.857C 43.6 24.4 38.8 20.971 34 20.286C 29.2 19.6 24.743 24.057 25.429 28.857M 19.257 50.8C 21.314 45.314 28.171 42.229 34 42.571C 39.829 42.914 45.314 45.657 48.743 50.8M 11.714 34C 11.029 46.343 21.657 54.914 34 56.286C 46.343 58 58.343 46 56.286 34C 54.229 22 46 9.314 34 11.714C 22 14.114 8.629 22 11.714 34M 25.429 28.857C 25.429 33.591 29.266 37.429 34 37.429C 38.734 37.429 42.571 33.591 42.571 28.857C 42.571 24.123 38.734 20.286 34 20.286C 29.266 20.286 25.429 24.123 25.429 28.857M 19.36 50.8C 22.471 45.693 28.02 42.576 34 42.576C 39.98 42.576 45.529 45.693 48.64 50.8M 11.714 34C 11.714 46.308 21.692 56.286 34 56.286C 46.308 56.286 56.286 46.308 56.286 34C 56.286 21.692 46.308 11.714 34 11.714C 21.692 11.714 11.714 21.692 11.714 34"></path></g></g></g><g id="g-root-1_4kfz0feh8z5v-stroke" data-item-order="0" data-item-id="1_4kfz0feh8z5v" data-item-class="Icon Stroke SceneTarget Indexed ColorStrokeBlack" data-item-index="2" data-renderer-id="0" transform="translate(220, 194)"><g id="1_4kfz0feh8z5v-stroke" fill="none" stroke-linecap="round" stroke-linejoin="round" stroke-miterlimit="4" stroke="#484848" stroke-width="2"><g><path d="M 15.143 13.429C 27.829 13.429 40.514 11.714 52.857 13.429C 52.857 13.429 55.6 13.429 56.286 16.857C 56.971 21.314 56.971 26.114 56.286 30.571C 56.286 30.571 56.286 35.029 52.857 34C 40.857 30.229 27.829 33.657 15.143 34C 15.143 34 10.343 33.657 11.714 30.571C 13.429 26.457 12.743 21.314 11.714 16.857C 11.714 16.857 11.714 13.771 15.143 13.429M 20.286 23.714C 20.629 24.743 20.971 25.771 22 25.429C 23.029 25.086 23.714 24.743 23.714 23.714C 23.714 22.686 23.029 22 22 22C 20.971 22 20.286 22.686 20.286 23.714M 35.714 23.714C 39.829 23.714 43.943 24.743 47.714 23.714M 15.143 34C 13.086 33.657 12.057 35.371 11.714 37.429C 11.029 41.886 11.029 46.686 11.714 51.143C 12.057 52.857 13.086 54.229 15.143 54.571C 27.486 55.943 40.514 56.286 52.857 54.571C 54.571 54.229 55.6 52.857 56.286 51.143C 58 47.029 57.657 41.886 56.286 37.429C 55.943 35.714 54.914 33.657 52.857 34M 20.286 44.286C 19.943 45.314 20.971 46 22 46C 23.029 46 24.057 45.314 23.714 44.286C 23.371 43.257 23.029 42.571 22 42.571C 20.971 42.571 20.286 43.257 20.286 44.286M 35.714 44.286C 39.486 43.257 43.943 45.314 47.714 44.286M 15.143 13.429L 52.857 13.429C 52.857 13.429 56.286 13.429 56.286 16.857L 56.286 30.571C 56.286 30.571 56.286 34 52.857 34L 15.143 34C 15.143 34 11.714 34 11.714 30.571L 11.714 16.857C 11.714 16.857 11.714 13.429 15.143 13.429M 20.286 23.714C 20.286 24.661 21.053 25.429 22 25.429C 22.947 25.429 23.714 24.661 23.714 23.714C 23.714 22.768 22.947 22 22 22C 21.053 22 20.286 22.768 20.286 23.714M 35.714 23.714L 47.714 23.714M 15.143 34C 13.249 34 11.714 35.535 11.714 37.429L 11.714 51.143C 11.714 53.036 13.249 54.571 15.143 54.571L 52.857 54.571C 54.751 54.571 56.286 53.036 56.286 51.143L 56.286 37.429C 56.286 35.535 54.751 34 52.857 34M 20.286 44.286C 20.286 45.232 21.053 46 22 46C 22.947 46 23.714 45.232 23.714 44.286C 23.714 43.339 22.947 42.571 22 42.571C 21.053 42.571 20.286 43.339 20.286 44.286M 35.714 44.286L 47.714 44.286"></path></g></g></g><g id="g-root-pyra_909h4veh8ydm-stroke" data-item-order="0" data-item-id="pyra_909h4veh8ydm" data-item-class="Icon Stroke SceneTarget Indexed ColorStrokeBlack" data-item-index="3" data-renderer-id="0" transform="translate(388, 194)"><g id="pyra_909h4veh8ydm-stroke" fill="none" stroke-linecap="round" stroke-linejoin="round" stroke-miterlimit="4" stroke="#484848" stroke-width="2"><g><path d="M 52.4 19C 52.6 19.4 53 19.8 53 20.4C 53.8 32 52.8 43.4 53 55C 53 56.2 52 56.6 51 57C 40.2 60.8 27.8 54 17 57C 16 57.4 15.4 56 15 55C 10.6 41.6 16.8 26.8 15 13C 14.8 12 16 10.8 17 11C 25.8 12 35 8.8 43.6 11C 44.2 11.2 44.6 11.2 45 11.6C 47.6 13.8 49.6 17 52.4 19M 25 45C 25.4 47.2 29.2 47.6 34 49C 38.8 50.4 43.6 47 43 45C 42.4 42.8 39 41.2 34 41C 29 40.6 24.8 42.8 25 45M 25.6 43.6C 28.4 37.8 30.4 31.8 33 26.2C 33.2 25.8 33.6 25.4 34 25.6C 34.4 25.6 34.8 25.8 35 26.2C 37.8 31.8 40.2 37.6 42.4 43.6M 52.414 19C 52.789 19.375 53 19.884 53 20.414L 53 55C 53 56.105 52.105 57 51 57L 17 57C 15.895 57 15 56.105 15 55L 15 13C 15 11.895 15.895 11 17 11L 43.586 11C 44.116 11 44.625 11.211 45 11.586ZM 25 45C 25 47.209 29.029 49 34 49C 38.971 49 43 47.209 43 45C 43 42.791 38.971 41 34 41C 29.029 41 25 42.791 25 45ZM 25.632 43.524L 33.08 26.144C 33.237 25.775 33.599 25.536 34 25.536C 34.401 25.536 34.763 25.775 34.92 26.144L 42.368 43.524"></path></g></g></g><g id="g-root-web_qnsn3zeh8yrt-stroke" data-item-order="0" data-item-id="web_qnsn3zeh8yrt" data-item-class="Icon Stroke SceneTarget Indexed ColorStrokeBlack" data-item-index="4" data-renderer-id="0" transform="translate(556, 194)"><g id="web_qnsn3zeh8yrt-stroke" fill="none" stroke-linecap="round" stroke-linejoin="round" stroke-miterlimit="4" stroke="#484848" stroke-width="2"><g><path d="M 11.714 34C 13.086 46.343 21.657 56.629 34 56.286C 46.343 55.943 56.971 46.343 56.286 34C 55.6 21.657 46 8.629 34 11.714C 22 14.8 15.143 22 11.714 34M 11.714 34C 26.457 33.657 41.543 36.057 56.286 34M 42.571 34C 41.886 42.229 40.171 51.143 34 56.286C 27.829 50.8 27.143 41.886 25.429 34C 24.4 25.771 29.886 18.571 34 11.714C 39.143 18.229 43.6 25.771 42.571 34M 11.714 34C 11.714 46.308 21.692 56.286 34 56.286C 46.308 56.286 56.286 46.308 56.286 34C 56.286 21.692 46.308 11.714 34 11.714C 21.692 11.714 11.714 21.692 11.714 34M 11.714 34L 56.286 34M 42.571 34C 42.15 42.15 39.149 49.954 34 56.286C 28.851 49.954 25.85 42.15 25.429 34C 25.85 25.85 28.851 18.046 34 11.714C 39.149 18.046 42.15 25.85 42.571 34Z"></path></g></g></g></g></svg>