<?xml version="1.0" encoding="UTF-8"?>
<svg xmlns="http://www.w3.org/2000/svg" width="354.24" height="142.02" viewBox="0 0 354.24 142.02">
  <g style="isolation: isolate;">
    <g id="Layer_2">
      <g id="Layer_1-2" data-name="Layer_1">
        <g>
          <rect x=".5" y=".5" width="353.24" height="141.02" style="fill: #fff; stroke: #f8f8f8; stroke-miterlimit: 10;"/>
          <g>
            <path d="M311.94,112.37c-.21,0-.41-.08-.57-.23-.31-.31-.31-.82,0-1.13l4.21-4.21-4.21-4.21c-.31-.31-.31-.82,0-1.13.31-.31.82-.31,1.13,0l4.77,4.77c.31.31.31.82,0,1.13l-4.77,4.77c-.16.16-.36.23-.57.23Z" style="fill: #333;"/>
            <g id="blend" style="mix-blend-mode: multiply;">
              <g id="g-root-fiel_1hf2a67g4tvyb-stroke">
                <g id="fiel_1hf2a67g4tvyb-stroke">
                  <path d="M75.18,92.64c-1.34,0-2.7-.18-4.05-.55-.34-.09-.54-.45-.45-.79.09-.34.45-.54.79-.45,6.8,1.87,13.98-1.63,16.7-8.14,2.5-6.01.51-12.91-4.61-16.7l.79,2.95c.09.34-.11.69-.45.78-.34.09-.69-.11-.78-.45l-1.22-4.56c-.04-.16-.02-.31.04-.45,0-.01.01-.02.02-.04.1-.17.26-.28.44-.31l4.51-1.21c.34-.09.69.11.78.45.09.34-.11.69-.45.78l-3.16.85c5.77,4.1,8.04,11.75,5.27,18.39-2.42,5.82-8.11,9.43-14.17,9.43ZM63.26,91.88c-.28,0-.54-.19-.62-.47-.09-.34.11-.69.45-.78l3.16-.85c-5.79-4.12-8.05-11.79-5.23-18.46,3.01-7.12,10.89-10.89,18.32-8.77.34.1.54.45.44.79-.1.34-.45.54-.79.44-6.82-1.94-14.04,1.51-16.79,8.04-2.54,6.02-.57,12.94,4.57,16.75l-.79-2.95c-.09-.34.11-.69.45-.78.34-.09.69.11.78.45l1.22,4.56c.04.15.02.31-.04.45,0,.01-.01.03-.02.04-.1.17-.26.28-.44.31l-4.51,1.21c-.06.01-.11.02-.17.02ZM82.15,84.28c-.26,0-.51-.16-.6-.42-.93-2.54-3.37-4.25-6.08-4.25s-5.15,1.71-6.08,4.25c-.12.33-.49.5-.82.38-.33-.12-.5-.49-.38-.82,1.11-3.05,4.04-5.09,7.28-5.09s6.17,2.05,7.28,5.09c.12.33-.05.7-.38.82-.07.03-.15.04-.22.04ZM75.4,77.61c-1.33,0-2.58-.52-3.52-1.46s-1.46-2.19-1.46-3.52h0c0-1.33.52-2.58,1.46-3.52.01-.02.03-.03.05-.05.94-.91,2.17-1.41,3.48-1.41s2.58.52,3.52,1.46,1.46,2.19,1.46,3.52c0,1.33-.52,2.58-1.46,3.52s-2.19,1.46-3.52,1.46ZM72.29,70.62c-.38.59-.59,1.28-.59,2.01h0c0,.99.38,1.92,1.08,2.62s1.63,1.08,2.62,1.08,1.92-.39,2.62-1.08c.55-.55.9-1.24,1.03-1.99-2.42-.06-5.14-.52-6.76-2.64ZM73.18,69.67c1.28,1.85,3.7,2.25,5.87,2.31-.13-.74-.48-1.43-1.03-1.97-.7-.7-1.63-1.08-2.62-1.08-.81,0-1.59.26-2.22.74Z" style="fill: #5d5dce;"/>
                </g>
              </g>
            </g>
            <g id="blend-2" data-name="blend" style="mix-blend-mode: multiply;">
              <g id="g-root-layo_1uqisjjg4tudc-stroke">
                <g id="layo_1uqisjjg4tudc-stroke">
                  <path d="M283.42,92.04h-24.27c-1.1,0-3.19-.67-3.19-3.19v-20.44c0-1.1.67-3.19,3.19-3.19h24.27c1.1,0,3.19.67,3.19,3.19v20.44c0,1.1-.67,3.19-3.19,3.19ZM257.23,72.88v15.97c0,1.8,1.6,1.91,1.92,1.92h4.47v-17.88h-6.39ZM264.89,81.83v8.94h18.52c1.8,0,1.91-1.6,1.92-1.92v-7.02h-20.44ZM264.89,80.55h20.44v-7.66h-20.44v7.66ZM264.26,71.61h21.08v-3.19c0-1.8-1.6-1.91-1.92-1.92h-24.27c-1.8,0-1.91,1.6-1.92,1.92v3.19h7.03ZM268.73,70.01c-.53,0-.96-.43-.96-.96s.43-.96.96-.96.96.43.96.96-.43.96-.96.96ZM268.73,68.73c-.18,0-.32.14-.32.32s.14.32.32.32.32-.14.32-.32-.14-.32-.32-.32ZM264.89,70.01c-.53,0-.96-.43-.96-.96s.43-.96.96-.96.96.43.96.96-.43.96-.96.96ZM264.89,68.73c-.18,0-.32.14-.32.32s.14.32.32.32.32-.14.32-.32-.14-.32-.32-.32ZM261.06,70.01c-.53,0-.96-.43-.96-.96s.43-.96.96-.96.96.43.96.96-.43.96-.96.96ZM261.06,68.73c-.18,0-.32.14-.32.32s.14.32.32.32.32-.14.32-.32-.14-.32-.32-.32Z" style="fill: #5d5dce;"/>
                </g>
              </g>
            </g>
            <path d="M316.71,107.6H36.61c-.44,0-.8-.36-.8-.8s.36-.8.8-.8h280.1c.44,0,.8.36.8.8s-.36.8-.8.8Z" style="fill: #333;"/>
            <g>
              <circle cx="74.72" cy="106.8" r="4.24" style="fill: #fff;"/>
              <path d="M74.71,111.84c-2.78,0-5.04-2.26-5.04-5.04s2.26-5.04,5.04-5.04,5.04,2.26,5.04,5.04-2.26,5.04-5.04,5.04ZM74.71,103.36c-1.9,0-3.44,1.54-3.44,3.44s1.54,3.44,3.44,3.44,3.44-1.54,3.44-3.44-1.54-3.44-3.44-3.44Z" style="fill: #333;"/>
            </g>
            <g>
              <circle cx="173.24" cy="106.8" r="4.24" style="fill: #fff;"/>
              <path d="M173.24,111.84c-2.78,0-5.04-2.26-5.04-5.04s2.26-5.04,5.04-5.04,5.04,2.26,5.04,5.04-2.26,5.04-5.04,5.04ZM173.24,103.36c-1.9,0-3.44,1.54-3.44,3.44s1.54,3.44,3.44,3.44,3.44-1.54,3.44-3.44-1.54-3.44-3.44-3.44Z" style="fill: #333;"/>
            </g>
            <g>
              <circle cx="272.19" cy="106.8" r="4.24" style="fill: #fff;"/>
              <path d="M272.19,111.84c-2.78,0-5.04-2.26-5.04-5.04s2.26-5.04,5.04-5.04,5.04,2.26,5.04,5.04-2.26,5.04-5.04,5.04ZM272.19,103.36c-1.9,0-3.44,1.54-3.44,3.44s1.54,3.44,3.44,3.44,3.44-1.54,3.44-3.44-1.54-3.44-3.44-3.44Z" style="fill: #333;"/>
            </g>
            <g>
              <path d="M60.99,36.73c.28,0,.54-.04.74-.06v1.16c-.22-.03-.56-.04-.74-.04h-5.33c-.24,0-.52,0-.79.04v-1.16c.26.04.54.06.79.06h3.3c.15-.87.43-2.57.45-3.09h-2.76c-.32,0-.62,0-.9.03v-1.13c.26.03.62.06.9.06h2.53c.21,0,.61-.05.74-.1l.83.42c-.03.11-.07.3-.08.36-.1.73-.38,2.55-.54,3.45h.86Z" style="fill: #333;"/>
              <path d="M63.19,34.42c.29.02.87.05,1.29.05h4.29c.37,0,.73-.03.94-.05v1.26c-.19,0-.6-.04-.94-.04h-4.29c-.46,0-.99.02-1.29.04v-1.26Z" style="fill: #333;"/>
              <path d="M77.06,33.46c.42,0,.66-.02.88-.06v1.06c-.18-.02-.46-.02-.87-.02h-.6v.26c0,1.98-.47,3.19-2.41,4.05l-.86-.81c1.54-.54,2.22-1.23,2.22-3.2v-.3h-1.9v1.09c0,.36.02.68.03.84h-1.12c.02-.16.05-.48.05-.84v-1.09h-.68c-.4,0-.69.02-.86.03v-1.09c.14.02.46.08.86.08h.68v-.8c0-.3-.03-.57-.05-.72h1.14c-.02.15-.05.41-.05.73v.79h1.9v-.85c0-.32-.02-.58-.05-.74h1.14c-.02.16-.06.42-.06.74v.85h.59ZM77.02,33.17c-.11-.34-.26-.78-.41-1.1l.54-.18c.15.32.34.78.42,1.1l-.55.18ZM77.86,32.9c-.11-.34-.26-.78-.43-1.09l.54-.18c.15.32.34.78.44,1.09l-.55.18Z" style="fill: #333;"/>
              <path d="M79.53,34.42c.29.02.87.05,1.29.05h4.29c.37,0,.73-.03.94-.05v1.26c-.19,0-.6-.04-.94-.04h-4.29c-.46,0-.99.02-1.29.04v-1.26Z" style="fill: #333;"/>
              <path d="M90.82,37.51c.3-.04.53-.08.74-.13,1.02-.24,1.8-.97,1.8-2.12s-.59-1.91-1.65-2.09c-.11.67-.25,1.41-.47,2.15-.47,1.6-1.16,2.57-2.02,2.57s-1.62-.97-1.62-2.3c0-1.82,1.59-3.39,3.65-3.39s3.2,1.37,3.2,3.09-1.02,2.85-3.02,3.15l-.59-.94ZM90.2,35.11c.18-.58.33-1.26.42-1.92-1.31.27-2.01,1.42-2.01,2.29,0,.8.32,1.19.62,1.19.33,0,.65-.5.97-1.57Z" style="fill: #333;"/>
              <path d="M58.19,43.99c-.02.18-.02.35-.02.61v2.7c0,.2,0,.51.02.7h-1.18c0-.15.04-.46.04-.7v-2.69c0-.15,0-.43-.03-.61h1.18ZM61.88,43.91c-.02.22-.03.48-.03.8v1.58c0,1.72-.34,2.45-.93,3.11-.53.58-1.36.98-1.94,1.16l-.84-.88c.8-.18,1.47-.49,1.96-1.01.54-.6.65-1.2.65-2.45v-1.52c0-.32-.02-.58-.05-.8h1.18Z" style="fill: #333;"/>
              <path d="M70.16,45.15c-.09.15-.2.38-.26.58-.22.71-.67,1.77-1.39,2.67-.76.93-1.73,1.66-3.23,2.25l-.94-.85c1.64-.49,2.53-1.18,3.22-1.98.54-.62,1.01-1.58,1.14-2.18h-2.25c-.54.7-1.23,1.4-2.02,1.94l-.9-.66c1.4-.86,2.1-1.89,2.49-2.57.12-.2.29-.57.36-.84l1.17.38c-.19.28-.39.64-.49.82l-.02.04h1.61c.25,0,.51-.04.7-.1l.82.5Z" style="fill: #333;"/>
              <path d="M77.28,48.86c.29,0,.54-.03.74-.06v1.16c-.22-.03-.56-.04-.74-.04h-5.27c-.24,0-.52,0-.78.04v-1.16c.25.05.54.06.78.06h2.03v-3.26h-1.54c-.22,0-.56.02-.76.03v-1.1c.21.03.54.05.76.05h4.35c.24,0,.52-.02.75-.05v1.1c-.24-.02-.52-.03-.75-.03h-1.69v3.26h2.12Z" style="fill: #333;"/>
              <path d="M85.2,44.7c-.06.09-.21.34-.28.5-.27.62-.72,1.48-1.26,2.2.79.69,1.76,1.71,2.23,2.29l-.91.79c-.52-.72-1.26-1.54-2.02-2.26-.85.9-1.91,1.73-3.01,2.25l-.82-.86c1.29-.49,2.53-1.46,3.28-2.29.53-.6,1.02-1.39,1.19-1.96h-2.71c-.34,0-.78.05-.94.06v-1.14c.22.03.7.06.94.06h2.81c.35,0,.67-.05.83-.1l.66.49Z" style="fill: #333;"/>
              <path d="M92.43,48.28c-.82-.43-2.02-.9-2.89-1.19v2.26c0,.23.04.79.07,1.11h-1.25c.05-.31.08-.79.08-1.11v-4.59c0-.29-.02-.69-.08-.97h1.25c-.03.28-.07.63-.07.97v1.18c1.07.31,2.61.88,3.34,1.24l-.46,1.1Z" style="fill: #333;"/>
            </g>
            <g>
              <path d="M156.92,35.18c0-1.95,1.25-3.09,2.75-3.09.75,0,1.35.36,1.74.76l-.62.75c-.29-.29-.64-.5-1.09-.5-.9,0-1.57.77-1.57,2.04s.61,2.06,1.54,2.06c.5,0,.9-.24,1.22-.58l.62.74c-.49.57-1.12.87-1.89.87-1.5,0-2.71-1.07-2.71-3.05Z" style="fill: #333;"/>
              <path d="M162.87,32.2h1.62c1.81,0,2.93.94,2.93,2.93s-1.12,2.98-2.86,2.98h-1.69v-5.92ZM164.42,37.17c1.1,0,1.79-.59,1.79-2.03s-.69-1.99-1.79-1.99h-.37v4.02h.37Z" style="fill: #333;"/>
              <path d="M168.98,32.2h1.21l1.72,3.15.59,1.28h.04c-.06-.62-.15-1.4-.15-2.07v-2.36h1.12v5.92h-1.2l-1.71-3.17-.6-1.27h-.04c.06.64.14,1.38.14,2.06v2.37h-1.12v-5.92Z" style="fill: #333;"/>
              <path d="M178.34,31.83c-.05.21-.1.46-.14.66-.04.24-.1.53-.16.82.26-.02.5-.03.66-.03.84,0,1.43.38,1.43,1.51,0,.94-.11,2.2-.45,2.89-.26.55-.7.73-1.3.73-.3,0-.68-.05-.94-.11l-.18-1.05c.3.09.76.17.97.17.26,0,.47-.08.59-.34.22-.44.33-1.38.33-2.17,0-.63-.27-.72-.78-.72-.13,0-.32.02-.54.03-.3,1.2-.88,3.06-1.61,4.23l-1.04-.42c.78-1.04,1.31-2.62,1.6-3.7-.28.03-.53.06-.68.09-.22.02-.63.08-.88.12l-.09-1.07c.29.02.55,0,.84,0,.25,0,.62-.03,1.02-.06.11-.61.18-1.18.17-1.68l1.18.12ZM181.07,32.57c.48.68,1.14,2.19,1.38,2.94l-1,.47c-.21-.88-.78-2.31-1.34-3.01l.96-.4Z" style="fill: #333;"/>
              <path d="M184.88,35.14c.72-.52,1.5-.75,2.33-.75,1.39,0,2.2.86,2.2,1.81,0,1.45-1.14,2.56-4.44,2.27l-.3-1.04c2.38.34,3.63-.25,3.63-1.26,0-.51-.49-.89-1.18-.89-.9,0-1.69.33-2.18.93-.14.18-.23.3-.3.46l-.92-.23c.15-.78.34-2.32.39-3.3l1.07.14c-.1.44-.24,1.39-.3,1.85ZM185.13,31.71c.75.23,2.47.54,3.17.62l-.24.98c-.8-.1-2.57-.47-3.18-.63l.26-.96Z" style="fill: #333;"/>
              <path d="M145.29,47.6h-.44v1.69h-.86v-.3h-.62v.83c0,.42-.07.67-.34.81-.27.14-.63.18-1.14.18-.03-.26-.17-.63-.3-.88.34.02.65.02.76.02.1,0,.13-.02.13-.13v-.82h-.9v-.77h.9v-.62h-1.17v-.78h1.17v-.58h-.86v-.49c-.14-.11-.33-.26-.48-.38v.22h-1.08v.31h1.34v.68h-3.61v-.68h1.38v-.31h-1.06v-.65h1.06v-.29h-1.26v-.66h1.26v-.65h.88v.65h1.26v.66h-1.26v.29h1.08v.27c.48-.47.88-1.17,1.12-1.87l.83.19c-.06.18-.14.37-.22.55h.85l.14-.03.58.37c-.16.32-.4.7-.65,1.03h1.05v1.36h.44v.78ZM141.06,49.95c0,.37-.06.58-.3.71-.24.14-.54.14-.98.14-.04-.23-.15-.55-.26-.77.24.02.5,0,.58,0,.09,0,.11-.02.11-.1v-.42h-1.17v1.3h-.82v-3.94h2.84v3.08ZM139.05,47.56v.35h1.17v-.35h-1.17ZM140.21,48.9v-.36h-1.17v.36h1.17ZM142.52,44.81c-.14.23-.28.45-.43.65h.78c.14-.2.29-.42.41-.65h-.75ZM143.37,46.82h.62v-.58h-.62v.58ZM144,47.6h-.62v.62h.62v-.62Z" style="fill: #333;"/>
              <path d="M153.47,44.58s0,.32,0,.43c-.1,3.57-.19,4.85-.52,5.27-.22.3-.45.38-.77.44-.3.04-.78.03-1.26.02-.02-.26-.14-.66-.31-.93.51.05.98.05,1.19.05.16,0,.25-.03.35-.14.23-.26.34-1.46.42-4.28h-1.71c-.21.48-.46.92-.7,1.26-.13-.12-.4-.3-.62-.45v3.73h-2.13v.58h-.86v-5.94h.9c.1-.4.2-.91.23-1.29l1.04.14c-.14.4-.28.8-.42,1.14h1.24v1.29c.46-.67.85-1.64,1.08-2.57l.9.21c-.08.34-.19.68-.31,1.02h2.25ZM148.68,45.46h-1.27v1.3h1.27v-1.3ZM148.68,49.15v-1.57h-1.27v1.57h1.27ZM151.33,48.72c-.22-.48-.72-1.26-1.11-1.85l.74-.42c.4.55.93,1.31,1.18,1.77l-.81.5Z" style="fill: #333;"/>
              <path d="M160.95,44.79c-.07.16-.14.38-.18.56-.18.78-.54,2.02-1.2,2.91-.73.96-1.79,1.75-3.21,2.21l-.87-.96c1.58-.37,2.49-1.06,3.13-1.87.53-.66.83-1.58.94-2.25h-3.73c-.36,0-.74.02-.95.03v-1.13c.24.02.7.06.96.06h3.69c.16,0,.42,0,.63-.06l.78.5Z" style="fill: #333;"/>
              <path d="M168.24,46.13c-.08.09-.19.24-.24.32-.28.45-1.02,1.46-1.59,1.9l-.8-.56c.46-.31.96-.88,1.15-1.22h-3.47c-.26,0-.54.02-.83.05v-1.03c.25.04.57.06.83.06h3.71c.18,0,.52-.02.65-.06l.59.54ZM165.49,46.97c-.05,1.5-.05,2.9-1.92,3.93l-.85-.68c.21-.08.41-.18.65-.34.9-.62,1.07-1.33,1.07-2.33,0-.19-.02-.4-.06-.57h1.1Z" style="fill: #333;"/>
              <path d="M173.42,49.42c0,.35.02.85.07,1.05h-1.26c.03-.19.06-.7.06-1.05v-2.62c-.82.42-1.82.83-2.75,1.09l-.58-.98c1.4-.3,2.74-.9,3.64-1.45.81-.5,1.64-1.22,2.09-1.81l.86.78c-.61.61-1.33,1.21-2.12,1.72v3.27Z" style="fill: #333;"/>
              <path d="M176.47,49.82c.7-.5,1.14-1.23,1.36-1.91.22-.69.23-2.2.23-3.17,0-.32-.02-.54-.07-.73h1.17s-.06.39-.06.72c0,.94-.02,2.63-.24,3.44-.24.9-.74,1.69-1.42,2.29l-.98-.65ZM180.17,49.94c.03-.15.06-.38.06-.59v-4.66c0-.36-.06-.66-.06-.69h1.19s-.06.34-.06.7v4.18c.65-.28,1.44-.91,1.97-1.69l.62.88c-.66.86-1.81,1.73-2.71,2.18-.17.09-.25.16-.35.24l-.66-.55Z" style="fill: #333;"/>
              <path d="M188.41,48.97c.02-.23.02-.6.03-.94-.58.32-.9.63-.9,1.02,0,.44.38.56,1.15.56.67,0,1.55-.09,2.25-.23l-.03,1.03c-.53.06-1.5.13-2.24.13-1.24,0-2.17-.3-2.17-1.32s.96-1.65,1.86-2.11c-.13-.2-.33-.27-.55-.27-.45,0-.94.26-1.24.54-.24.24-.46.53-.74.87l-.85-.63c.83-.77,1.39-1.47,1.74-2.17h-.1c-.32,0-.9-.02-1.33-.06v-.93c.4.06.99.09,1.39.09h.38c.1-.36.15-.68.16-.9l1.04.09c-.04.19-.1.46-.19.78.74-.04,1.54-.1,2.24-.23v.93c-.77.11-1.74.18-2.59.21-.13.28-.29.57-.46.8.21-.1.63-.16.9-.16.48,0,.88.21,1.06.62.41-.19.74-.33,1.07-.47.3-.14.58-.27.87-.41l.4.92c-.26.06-.67.22-.94.34-.35.14-.8.31-1.29.54,0,.44.02,1.02.03,1.38h-.95Z" style="fill: #333;"/>
              <path d="M192.9,43.63h3.63v.84h-.99v.64h.85v5.55h-.76v-.4h-1.86v.5h-.73v-5.65h.93v-.64h-1.08v-.84ZM195.28,47.78c-.34,0-.45-.1-.45-.58v-1.3h-.28v.63c0,.45-.08,1.04-.45,1.46-.07-.08-.24-.23-.34-.3v.63h1.86v-.55h-.34ZM193.77,45.9v1.77c.31-.34.35-.78.35-1.14v-.62h-.35ZM195.62,49.53v-.54h-1.86v.54h1.86ZM194.91,44.47h-.33v.64h.33v-.64ZM195.62,45.9h-.36v1.3c0,.1,0,.11.07.11h.14c.07,0,.09,0,.1-.02,0,0,.02.02.04.03v-1.42ZM199.05,49.81c.31,0,.36-.19.41-1.25.2.15.6.32.85.38-.1,1.35-.35,1.76-1.18,1.76h-1.11c-.89,0-1.17-.27-1.17-1.25v-3.32h2.23v-1.5h-2.26v-.92h3.18v3.82h-.92v-.5h-1.29v2.41c0,.34.05.38.36.38h.9Z" style="fill: #333;"/>
              <path d="M203.86,43.65c-.21.51-.46,1.04-.74,1.54v5.6h-.9v-4.22c-.22.28-.44.53-.66.75-.09-.22-.34-.74-.5-.97.76-.72,1.5-1.85,1.93-2.99l.88.29ZM208.68,44.79v.77h-5.12v-.77h5.12ZM204.07,48.22h4.17v2.56h-.96v-.3h-2.3v.32h-.91v-2.58ZM208.13,46.69h-3.93v-.74h3.93v.74ZM204.2,47.09h3.9v.74h-3.9v-.74ZM207.99,44.4h-3.66v-.74h3.66v.74ZM204.98,48.96v.78h2.3v-.78h-2.3Z" style="fill: #333;"/>
            </g>
            <g>
              <path d="M258.8,32.56l.5.33c-.07.15-.13.38-.18.55-.18.78-.53,2.02-1.2,2.91-.72.96-1.78,1.75-3.21,2.21l-.87-.95c1.59-.38,2.49-1.06,3.13-1.88.53-.66.83-1.57.94-2.25h-3.73c-.37,0-.74.02-.95.03v-1.13c.23.03.69.06.95.06h3.7c.1,0,.23,0,.38-.02-.14-.26-.3-.54-.45-.78l.66-.27c.21.3.47.77.62,1.06l-.29.13ZM259.6,31.18c.2.29.49.78.64,1.06l-.66.29c-.18-.33-.42-.78-.64-1.07l.66-.27Z" style="fill: #333;"/>
              <path d="M267.16,34.3c-.06.1-.12.25-.15.34-.24.78-.58,1.55-1.18,2.21-.81.9-1.83,1.44-2.85,1.73l-.8-.9c1.21-.25,2.17-.78,2.77-1.4.43-.44.68-.94.82-1.38h-3.86c-.19,0-.59,0-.93.04v-1.04c.34.03.68.05.93.05h3.96c.26,0,.47-.03.58-.08l.71.44ZM261.72,31.99c.22.03.56.04.83.04h3.08c.25,0,.64,0,.86-.04v1.03c-.22-.02-.59-.02-.88-.02h-3.06c-.26,0-.6,0-.83.02v-1.03Z" style="fill: #333;"/>
              <path d="M275.24,33.27c-.06.18-.13.48-.16.64-.14.77-.35,1.54-.74,2.26-.64,1.18-1.84,2.03-3.26,2.4l-.83-.96c.36-.06.8-.18,1.13-.31.66-.25,1.37-.72,1.81-1.37.41-.58.62-1.34.71-2.06h-3.97v1.17c0,.18,0,.43.02.59h-1.1c.02-.2.04-.46.04-.67v-1.38c0-.18,0-.5-.04-.69.28.03.51.04.82.04h1.71v-.62c0-.22,0-.39-.06-.74h1.23c-.04.34-.06.51-.06.74v.62h1.39c.34,0,.53-.04.66-.09l.7.42Z" style="fill: #333;"/>
              <path d="M282.62,33.46c.42,0,.66-.02.88-.06v1.06c-.18-.02-.46-.02-.87-.02h-.6v.26c0,1.98-.47,3.19-2.41,4.05l-.86-.81c1.54-.54,2.22-1.23,2.22-3.2v-.3h-1.9v1.09c0,.36.02.68.03.84h-1.12c.02-.16.05-.48.05-.84v-1.09h-.68c-.4,0-.69.02-.86.03v-1.09c.14.02.46.08.86.08h.68v-.8c0-.3-.03-.57-.05-.72h1.14c-.02.15-.05.41-.05.73v.79h1.9v-.85c0-.32-.02-.58-.05-.74h1.14c-.02.16-.06.42-.06.74v.85h.59ZM282.59,33.17c-.11-.34-.26-.78-.41-1.1l.54-.18c.15.32.34.78.42,1.1l-.55.18ZM283.43,32.9c-.11-.34-.26-.78-.43-1.09l.54-.18c.15.32.34.78.44,1.09l-.55.18Z" style="fill: #333;"/>
              <path d="M285.49,32.61c.66-.06,1.97-.18,3.42-.3.82-.06,1.68-.11,2.24-.14v1.02c-.42,0-1.1,0-1.52.1-.96.26-1.67,1.28-1.67,2.21,0,1.3,1.22,1.77,2.56,1.84l-.37,1.1c-1.66-.1-3.23-1-3.23-2.72,0-1.14.63-2.04,1.17-2.44-.69.07-2.35.25-3.27.45l-.1-1.09c.32,0,.62-.02.78-.04ZM290.68,35.05l-.61.27c-.2-.44-.37-.75-.62-1.11l.59-.25c.19.29.49.77.64,1.09ZM291.61,34.66l-.6.29c-.22-.43-.4-.73-.66-1.08l.58-.27c.2.28.5.75.67,1.06Z" style="fill: #333;"/>
              <path d="M248.58,47.24c.37-.37.99-1.15,1.54-1.81.48-.57.91-.62,1.57-.07.54.46,1.14,1.09,1.63,1.62.54.58,1.39,1.5,1.97,2.16l-.86.93c-.51-.66-1.24-1.54-1.71-2.1-.5-.59-1.17-1.33-1.47-1.58-.28-.24-.42-.24-.65.05-.31.4-.89,1.19-1.22,1.63-.18.25-.38.54-.51.74l-.94-.97c.24-.2.42-.37.66-.61ZM253.92,44.19c.58,0,1.04.46,1.04,1.04s-.46,1.03-1.04,1.03-1.03-.46-1.03-1.03.46-1.04,1.03-1.04ZM253.92,45.73c.28,0,.51-.22.51-.5s-.23-.51-.51-.51-.5.23-.5.51.22.5.5.5Z" style="fill: #333;"/>
              <path d="M256.61,46.42c.29.02.87.05,1.29.05h4.29c.37,0,.73-.03.94-.05v1.26c-.19,0-.6-.04-.94-.04h-4.29c-.46,0-.99.02-1.29.04v-1.26Z" style="fill: #333;"/>
              <path d="M266.91,46.78l-.58.9c-.46-.32-1.29-.86-1.82-1.14l.58-.88c.54.29,1.42.84,1.83,1.13ZM267.55,48.6c1.36-.76,2.48-1.85,3.11-3l.62,1.09c-.74,1.11-1.87,2.12-3.17,2.88-.82.46-1.97.86-2.67.98l-.6-1.05c.9-.15,1.85-.42,2.72-.9ZM268.13,44.97l-.59.88c-.45-.31-1.28-.85-1.81-1.14l.58-.88c.53.29,1.41.86,1.82,1.14ZM270.52,45.22l-.7.3c-.23-.5-.42-.85-.7-1.26l.66-.28c.23.34.55.87.74,1.24ZM271.64,44.79l-.68.3c-.26-.5-.46-.82-.75-1.22l.68-.28c.25.32.56.84.75,1.19Z" style="fill: #333;"/>
              <path d="M276.14,48.97c.02-.23.02-.6.03-.94-.58.32-.9.63-.9,1.02,0,.44.38.56,1.15.56.67,0,1.55-.09,2.25-.23l-.03,1.03c-.53.06-1.5.13-2.24.13-1.24,0-2.17-.3-2.17-1.32s.96-1.65,1.86-2.11c-.13-.2-.34-.27-.55-.27-.45,0-.94.26-1.24.54-.24.24-.46.53-.74.87l-.85-.63c.83-.77,1.39-1.47,1.74-2.17h-.1c-.32,0-.9-.02-1.33-.06v-.93c.4.06.99.09,1.39.09h.38c.1-.36.15-.68.16-.9l1.04.09c-.04.19-.1.46-.19.78.74-.04,1.54-.1,2.24-.23v.93c-.77.11-1.74.18-2.59.21-.13.28-.29.57-.46.8.21-.1.63-.16.9-.16.48,0,.88.21,1.06.62.41-.19.74-.33,1.07-.47.3-.14.58-.27.87-.41l.4.92c-.26.06-.67.22-.94.34-.35.14-.8.31-1.29.54,0,.44.02,1.02.03,1.38h-.95Z" style="fill: #333;"/>
              <path d="M287.77,47.81c-.5.36-1.09.73-1.58,1,.47.52,1.09.91,1.88,1.14-.21.2-.48.58-.62.85-1.69-.58-2.57-1.79-3.09-3.57-.3.29-.66.56-1.05.81v1.49c.57-.12,1.17-.25,1.74-.38l.09.86c-1.25.3-2.6.58-3.59.79l-.28-.88c.31-.06.69-.13,1.09-.21v-1.14c-.44.22-.89.39-1.33.53-.14-.22-.41-.58-.61-.77.95-.25,1.98-.7,2.73-1.22h-2.43v-.81h3.05v-.45h-2.38v-.76h2.38v-.41h-2.75v-.81h2.75v-.53h.95v.53h2.81v.81h-2.81v.41h2.5v.76h-2.5v.45h3.07v.81h-2.54c.13.39.28.74.48,1.07.45-.3.93-.66,1.25-.96l.79.59Z" style="fill: #333;"/>
              <path d="M291.25,47.58c-.35.94-.95,1.9-1.52,2.5-.2-.17-.63-.45-.88-.57.58-.53,1.11-1.38,1.39-2.2l1.01.26ZM293.21,46.73v2.97c0,.54-.11.8-.49.95-.37.15-.9.17-1.59.17-.05-.3-.19-.73-.34-1.02.46.02,1.02.03,1.17.02.15,0,.21-.04.21-.15v-2.94h-3.05v-.95h7.11v.95h-3.01ZM295.48,44.8h-5.64v-.94h5.64v.94ZM294.92,47.28c.53.74,1.1,1.7,1.33,2.38l-.99.44c-.18-.66-.72-1.69-1.23-2.45l.9-.38Z" style="fill: #333;"/>
            </g>
            <g id="blend-3" data-name="blend" style="mix-blend-mode: multiply;">
              <g id="g-root-1_4otqakl4pe6k-stroke">
                <g id="_x31__x5F_4otqakl4pe6k-stroke">
                  <path d="M185.03,94.25c-1.94,0-3.52-1.58-3.52-3.52,0-.23.02-.46.07-.68l-3.14-1.26c-.63.98-1.72,1.63-2.97,1.63-1.94,0-3.52-1.58-3.52-3.52s1.58-3.52,3.52-3.52c1.05,0,1.99.46,2.63,1.18l3.64-2.18c-.14-.38-.22-.79-.22-1.22,0-1.94,1.58-3.52,3.52-3.52s3.52,1.58,3.52,3.52-1.58,3.52-3.52,3.52c-1.04,0-1.99-.46-2.63-1.18l-3.64,2.18c.14.38.22.79.22,1.22,0,.23-.02.46-.07.68l3.14,1.26c.63-.98,1.72-1.63,2.97-1.63,1.94,0,3.52,1.58,3.52,3.52s-1.58,3.52-3.52,3.52ZM182.96,89.94c-.09.24-.14.51-.14.79,0,1.22,1,2.22,2.22,2.22s2.22-1,2.22-2.22-1-2.22-2.22-2.22c-.92,0-1.71.56-2.05,1.36,0,.01,0,.02-.01.04,0,.01-.01.02-.02.04ZM175.47,84.68c-1.22,0-2.22,1-2.22,2.22s1,2.22,2.22,2.22c.92,0,1.71-.56,2.05-1.36,0-.01,0-.02.01-.04,0-.01.01-.02.02-.04.09-.24.14-.51.14-.79,0-.39-.1-.76-.28-1.08-.02-.02-.03-.04-.04-.06-.01-.02-.02-.04-.03-.06-.4-.61-1.08-1.02-1.86-1.02ZM183.17,82.37c.4.61,1.08,1.01,1.86,1.01,1.22,0,2.22-1,2.22-2.22s-1-2.22-2.22-2.22-2.22,1-2.22,2.22c0,.39.1.75.28,1.07.02.02.03.04.05.07.01.02.03.05.04.07ZM169.41,87.87h-8.29c-1.77,0-3.2-1.44-3.2-3.2v-2.55c0-1.04.5-1.97,1.27-2.55-.77-.58-1.27-1.51-1.27-2.55v-2.55c0-1.04.5-1.97,1.27-2.55-.77-.58-1.27-1.51-1.27-2.55v-2.55c0-1.77,1.44-3.2,3.2-3.2h21.69c1.77,0,3.2,1.44,3.2,3.2v2.55c0,1.04-.5,1.97-1.27,2.55.77.58,1.27,1.51,1.27,2.55v1.91c0,.36-.29.65-.65.65s-.65-.29-.65-.65v-1.91c0-1.05-.85-1.9-1.9-1.9h-21.69c-1.05,0-1.9.85-1.9,1.9v2.55c0,1.05.85,1.9,1.9,1.9h16.58c.36,0,.65.29.65.65s-.29.65-.65.65h-16.58c-1.05,0-1.9.85-1.9,1.9v2.55c0,1.05.85,1.9,1.9,1.9h8.29c.36,0,.65.29.65.65s-.29.65-.65.65ZM161.12,71.26h21.69c1.05,0,1.9-.85,1.9-1.9v-2.55c0-1.05-.85-1.9-1.9-1.9h-21.69c-1.05,0-1.9.85-1.9,1.9v2.55c0,1.05.85,1.9,1.9,1.9ZM168.45,84.36c-.53,0-.97-.43-.97-.97s.43-.97.97-.97.97.43.97.97-.43.97-.97.97ZM168.45,83.06c-.18,0-.33.15-.33.33s.15.33.33.33.33-.15.33-.33-.15-.33-.33-.33ZM163.99,84.36c-.53,0-.97-.43-.97-.97s.43-.97.97-.97.97.43.97.97-.43.97-.97.97ZM163.99,83.06c-.18,0-.33.15-.33.33s.15.33.33.33.33-.15.33-.33-.15-.33-.33-.33ZM168.45,76.71c-.53,0-.97-.43-.97-.97s.43-.97.97-.97.97.43.97.97-.43.97-.97.97ZM168.45,75.41c-.18,0-.33.15-.33.33s.15.33.33.33.33-.15.33-.33-.15-.33-.33-.33ZM163.99,76.71c-.53,0-.97-.43-.97-.97s.43-.97.97-.97.97.43.97.97-.43.97-.97.97ZM163.99,75.41c-.18,0-.33.15-.33.33s.15.33.33.33.33-.15.33-.33-.15-.33-.33-.33ZM168.45,69.05c-.53,0-.97-.43-.97-.97s.43-.97.97-.97.97.43.97.97-.43.97-.97.97ZM168.45,67.75c-.18,0-.33.15-.33.33s.15.33.33.33.33-.15.33-.33-.15-.33-.33-.33ZM163.99,69.05c-.53,0-.97-.43-.97-.97s.43-.97.97-.97.97.43.97.97-.43.97-.97.97ZM163.99,67.75c-.18,0-.33.15-.33.33s.15.33.33.33.33-.15.33-.33-.15-.33-.33-.33Z" style="fill: #5d5dce;"/>
                </g>
              </g>
            </g>
          </g>
        </g>
      </g>
    </g>
  </g>
</svg>